<svg id="svg" version="1.1" xmlns="http://www.w3.org/2000/svg" width="400"
     height="113.98135818908122" viewBox="0, 0, 400,113.98135818908122">
    <g id="svgg">
        <path id="path0"
              d="M94.917 16.000 C 94.860 16.092,94.677 16.167,94.509 16.167 C 94.328 16.167,87.687 22.664,78.091 32.229 L 61.977 48.292 61.156 47.896 C 60.704 47.678,60.200 47.500,60.034 47.500 C 59.869 47.500,59.641 47.408,59.529 47.296 C 59.388 47.155,58.643 47.093,57.121 47.095 C 54.780 47.099,54.114 47.243,52.532 48.085 C 52.103 48.313,51.654 48.500,51.533 48.500 C 51.412 48.500,51.360 48.575,51.417 48.667 C 51.473 48.758,51.430 48.833,51.321 48.833 C 51.211 48.833,50.948 49.021,50.735 49.250 C 50.523 49.479,50.286 49.667,50.208 49.667 C 50.081 49.667,49.912 49.851,48.958 51.025 C 48.798 51.223,48.667 51.490,48.667 51.619 C 48.667 51.748,48.592 51.807,48.500 51.750 C 48.408 51.693,48.333 51.801,48.333 51.990 C 48.333 52.179,48.264 52.333,48.180 52.333 C 48.096 52.333,47.977 52.558,47.917 52.833 C 47.856 53.108,47.742 53.333,47.664 53.333 C 47.585 53.333,47.468 53.858,47.405 54.500 C 47.342 55.142,47.232 55.667,47.162 55.667 C 47.091 55.667,47.033 56.229,47.033 56.917 C 47.033 57.604,47.091 58.167,47.162 58.167 C 47.232 58.167,47.342 58.693,47.406 59.337 C 47.469 59.980,47.583 60.468,47.659 60.422 C 47.735 60.375,47.846 60.598,47.906 60.918 C 47.966 61.238,48.087 61.500,48.174 61.500 C 48.262 61.500,48.333 61.642,48.333 61.816 C 48.333 61.989,48.447 62.174,48.585 62.228 C 48.723 62.281,48.818 62.382,48.796 62.454 C 48.774 62.525,48.905 62.758,49.086 62.972 C 49.690 63.681,50.150 64.167,50.219 64.167 C 50.256 64.167,50.565 64.429,50.905 64.750 C 51.245 65.070,51.705 65.379,51.928 65.434 C 52.151 65.490,52.333 65.594,52.333 65.665 C 52.333 65.774,52.773 65.976,53.194 66.061 C 53.256 66.073,53.362 66.140,53.431 66.208 C 53.499 66.277,53.753 66.333,53.994 66.333 C 54.236 66.333,54.526 66.426,54.640 66.540 C 54.911 66.811,58.722 66.825,59.417 66.557 C 60.467 66.152,60.587 66.115,60.726 66.146 C 60.804 66.164,60.954 66.109,61.059 66.023 C 61.164 65.938,61.603 65.672,62.035 65.433 C 62.466 65.193,63.021 64.810,63.267 64.582 C 63.514 64.354,63.779 64.167,63.858 64.167 C 63.936 64.167,64.000 64.050,64.000 63.907 C 64.000 63.764,64.076 63.694,64.168 63.751 C 64.260 63.808,64.386 63.718,64.447 63.552 C 64.508 63.386,64.733 63.085,64.946 62.883 C 65.159 62.681,65.333 62.437,65.333 62.341 C 65.333 62.245,65.400 62.167,65.481 62.167 C 65.563 62.167,65.679 61.904,65.739 61.583 C 65.799 61.263,65.920 61.000,66.008 61.000 C 66.095 61.000,66.167 60.808,66.167 60.573 C 66.167 60.339,66.236 60.190,66.320 60.242 C 66.404 60.294,66.522 59.829,66.582 59.210 C 66.641 58.590,66.738 57.971,66.796 57.833 C 66.941 57.492,66.967 55.667,66.827 55.667 C 66.765 55.667,66.665 55.198,66.605 54.625 C 66.546 54.052,66.422 53.558,66.332 53.528 C 66.241 53.497,66.167 53.328,66.167 53.153 C 66.167 52.977,66.098 52.833,66.013 52.833 C 65.929 52.833,65.811 52.613,65.752 52.343 C 65.649 51.873,66.327 51.170,81.739 35.772 C 92.749 24.772,97.833 19.582,97.833 19.346 C 97.833 19.156,97.908 19.000,98.000 19.000 C 98.292 19.000,98.179 18.055,97.802 17.349 C 97.602 16.974,97.373 16.667,97.293 16.667 C 97.213 16.667,97.190 16.598,97.242 16.514 C 97.294 16.429,97.111 16.311,96.837 16.251 C 96.562 16.190,96.294 16.072,96.242 15.987 C 96.114 15.780,95.046 15.790,94.917 16.000 M27.417 21.833 C 27.360 21.925,27.162 22.000,26.976 22.000 C 26.561 22.000,24.467 23.005,24.283 23.292 C 24.210 23.406,24.041 23.500,23.908 23.500 C 23.775 23.500,23.666 23.556,23.666 23.625 C 23.665 23.694,23.310 24.125,22.876 24.583 C 22.442 25.042,22.123 25.433,22.168 25.453 C 22.213 25.473,22.113 25.649,21.945 25.845 C 21.777 26.041,21.598 26.458,21.548 26.771 C 21.497 27.085,21.390 27.382,21.311 27.431 C 21.232 27.480,21.167 27.815,21.167 28.177 C 21.167 28.538,21.110 28.833,21.042 28.833 C 20.883 28.833,20.890 30.779,21.049 30.938 C 21.114 31.002,21.167 31.301,21.167 31.601 C 21.167 31.901,21.242 32.193,21.333 32.250 C 21.425 32.307,21.500 32.461,21.500 32.592 C 21.500 32.944,22.056 34.167,22.216 34.167 C 22.291 34.167,22.312 34.233,22.262 34.314 C 22.145 34.504,24.129 36.500,24.435 36.500 C 24.562 36.500,24.667 36.576,24.667 36.669 C 24.667 36.763,24.948 36.969,25.292 37.128 C 25.635 37.287,25.960 37.474,26.012 37.545 C 26.064 37.616,26.608 37.720,27.220 37.778 C 27.832 37.835,28.333 37.932,28.333 37.994 C 28.333 38.056,28.708 38.124,29.167 38.145 C 29.625 38.166,30.000 38.115,30.000 38.032 C 30.000 37.949,30.501 37.835,31.113 37.778 C 31.725 37.720,32.270 37.603,32.323 37.517 C 32.376 37.430,32.627 37.308,32.881 37.244 C 33.134 37.181,33.440 36.988,33.561 36.815 C 33.681 36.643,33.818 36.540,33.865 36.587 C 34.049 36.772,36.070 34.566,36.274 33.958 C 36.328 33.798,36.430 33.667,36.501 33.667 C 36.572 33.667,36.679 33.404,36.739 33.083 C 36.799 32.762,36.910 32.500,36.986 32.500 C 37.137 32.500,37.315 31.336,37.412 29.708 C 37.446 29.135,37.405 28.667,37.321 28.667 C 37.236 28.667,37.167 28.367,37.167 28.000 C 37.167 27.633,37.100 27.333,37.019 27.333 C 36.937 27.333,36.821 27.071,36.761 26.750 C 36.701 26.429,36.589 26.167,36.512 26.167 C 36.391 26.167,36.277 25.910,36.197 25.455 C 36.184 25.384,36.004 25.140,35.795 24.913 C 35.587 24.685,35.193 24.237,34.919 23.916 C 34.645 23.596,34.359 23.333,34.283 23.333 C 34.207 23.333,33.899 23.146,33.598 22.917 C 33.298 22.688,32.928 22.500,32.776 22.500 C 32.624 22.500,32.500 22.432,32.500 22.348 C 32.500 22.264,32.181 22.143,31.792 22.079 C 31.402 22.015,30.975 21.877,30.843 21.773 C 30.651 21.621,30.631 21.633,30.742 21.833 C 30.856 22.037,30.840 22.044,30.658 21.875 C 30.385 21.622,27.570 21.586,27.417 21.833 M374.829 39.375 C 373.956 40.308,373.992 39.432,374.063 58.088 C 374.125 74.366,374.187 77.173,374.489 77.583 C 374.557 77.675,374.602 77.994,374.591 78.292 C 374.579 78.590,374.629 78.833,374.702 78.833 C 374.774 78.833,374.833 79.058,374.833 79.333 C 374.833 79.608,374.899 79.833,374.979 79.833 C 375.059 79.833,375.173 80.137,375.232 80.509 C 375.291 80.880,375.526 81.479,375.753 81.839 C 375.981 82.199,376.167 82.570,376.167 82.663 C 376.167 82.757,376.242 82.833,376.333 82.833 C 376.425 82.833,376.500 82.931,376.500 83.049 C 376.500 83.393,378.291 85.500,378.583 85.500 C 378.651 85.500,378.962 85.725,379.275 86.000 C 379.589 86.275,379.992 86.500,380.172 86.500 C 380.353 86.500,380.500 86.575,380.500 86.667 C 380.500 86.758,380.613 86.833,380.750 86.833 C 380.887 86.833,381.000 86.905,381.000 86.992 C 381.000 87.080,381.262 87.201,381.583 87.261 C 381.904 87.321,382.167 87.430,382.167 87.502 C 382.167 87.575,382.617 87.686,383.167 87.750 C 383.717 87.814,384.167 87.925,384.167 87.997 C 384.167 88.228,386.329 88.370,389.833 88.367 C 393.478 88.365,396.167 88.212,396.167 88.007 C 396.167 87.939,396.748 87.833,397.458 87.773 C 398.169 87.713,398.775 87.590,398.806 87.499 C 398.836 87.408,398.946 87.333,399.050 87.333 C 399.802 87.333,400.000 86.553,400.000 83.589 C 400.000 80.530,400.028 80.647,399.098 79.875 C 398.784 79.614,393.833 79.575,393.833 79.833 C 393.833 79.932,393.222 80.000,392.333 80.000 C 391.444 80.000,390.833 79.932,390.833 79.833 C 390.833 79.742,390.571 79.667,390.250 79.667 C 389.929 79.667,389.667 79.600,389.667 79.518 C 389.667 79.436,389.462 79.318,389.213 79.256 C 388.685 79.123,387.459 77.868,387.613 77.618 C 387.671 77.525,387.641 77.496,387.547 77.554 C 387.451 77.614,387.246 77.316,387.078 76.872 C 386.915 76.438,386.699 76.030,386.599 75.965 C 386.473 75.882,386.400 73.526,386.364 68.340 L 386.312 60.833 391.323 60.833 C 394.552 60.833,396.333 60.774,396.333 60.667 C 396.333 60.575,396.427 60.498,396.542 60.494 C 398.130 60.452,398.178 52.856,396.593 52.430 C 396.404 52.379,394.019 52.337,391.292 52.336 L 386.333 52.333 386.333 46.333 C 386.333 42.444,386.275 40.333,386.167 40.333 C 386.075 40.333,386.000 40.224,386.000 40.090 C 386.000 39.956,385.795 39.656,385.543 39.423 L 385.087 39.000 380.133 39.000 C 375.211 39.000,375.177 39.002,374.829 39.375 M304.495 49.724 C 304.446 49.774,304.090 49.834,303.703 49.857 C 303.317 49.880,303.000 49.959,303.000 50.033 C 303.000 50.106,302.817 50.167,302.593 50.167 C 302.369 50.167,302.144 50.235,302.093 50.318 C 302.042 50.401,301.850 50.430,301.667 50.382 C 301.480 50.333,301.333 50.377,301.333 50.481 C 301.333 50.583,301.221 50.667,301.083 50.667 C 300.946 50.667,300.833 50.742,300.833 50.833 C 300.833 50.925,300.686 51.000,300.505 51.000 C 300.148 51.000,298.784 51.653,298.694 51.868 C 298.664 51.940,298.533 52.000,298.403 52.000 C 298.273 52.000,298.167 52.057,298.167 52.127 C 298.167 52.255,297.803 52.477,296.958 52.863 C 296.706 52.979,296.457 53.207,296.405 53.370 C 296.353 53.533,296.247 53.667,296.169 53.667 C 296.091 53.667,295.909 53.712,295.764 53.768 C 295.543 53.853,295.500 53.718,295.500 52.934 C 295.500 52.421,295.425 52.000,295.333 52.000 C 295.242 52.000,295.167 51.839,295.167 51.643 C 295.167 51.447,294.947 51.076,294.679 50.820 L 294.191 50.353 289.330 50.353 L 284.469 50.353 283.985 50.849 C 283.718 51.122,283.500 51.450,283.500 51.579 C 283.500 51.708,283.424 51.860,283.332 51.918 C 283.103 52.059,283.107 86.333,283.336 86.333 C 283.426 86.333,283.500 86.414,283.500 86.513 C 283.500 86.612,283.719 86.912,283.987 87.179 L 284.474 87.667 289.319 87.667 C 296.244 87.667,295.500 89.256,295.500 74.460 L 295.500 62.970 296.256 62.235 C 296.672 61.831,297.085 61.500,297.173 61.500 C 297.261 61.500,297.333 61.423,297.333 61.330 C 297.333 61.236,297.519 61.075,297.747 60.971 C 297.974 60.868,298.204 60.644,298.258 60.475 C 298.312 60.305,298.482 60.165,298.636 60.163 C 298.790 60.161,299.104 60.013,299.333 59.833 C 299.563 59.654,299.813 59.506,299.891 59.504 C 299.968 59.502,300.233 59.356,300.480 59.181 C 300.726 59.006,301.225 58.807,301.589 58.740 C 301.953 58.673,302.295 58.550,302.350 58.466 C 302.485 58.257,306.006 58.242,306.142 58.450 C 306.201 58.540,306.484 58.660,306.771 58.715 C 307.058 58.771,307.574 59.083,307.919 59.408 C 308.264 59.734,308.603 60.000,308.672 60.000 C 308.741 60.000,308.844 60.188,308.902 60.417 C 308.959 60.646,309.080 60.833,309.170 60.833 C 309.260 60.833,309.333 60.946,309.333 61.083 C 309.333 61.221,309.405 61.333,309.492 61.333 C 309.580 61.333,309.703 61.615,309.766 61.958 C 309.830 62.302,309.964 62.637,310.066 62.702 C 310.197 62.787,310.265 66.167,310.300 74.369 C 310.331 81.360,310.413 85.979,310.508 86.075 C 310.595 86.162,310.667 86.337,310.667 86.463 C 310.667 86.589,310.886 86.912,311.154 87.179 L 311.641 87.667 316.430 87.667 L 321.219 87.667 321.776 87.242 C 322.083 87.008,322.333 86.708,322.333 86.575 C 322.333 86.442,322.408 86.333,322.500 86.333 C 322.709 86.333,322.732 63.553,322.524 63.472 C 322.445 63.442,322.332 62.745,322.272 61.924 C 322.213 61.102,322.090 60.356,321.999 60.265 C 321.908 60.174,321.833 59.890,321.833 59.633 C 321.833 59.377,321.767 59.167,321.686 59.167 C 321.604 59.167,321.487 58.829,321.425 58.417 C 321.364 58.004,321.248 57.667,321.170 57.667 C 321.091 57.667,320.977 57.442,320.917 57.167 C 320.856 56.892,320.738 56.667,320.653 56.667 C 320.569 56.667,320.500 56.554,320.500 56.417 C 320.500 56.279,320.441 56.167,320.370 56.167 C 320.298 56.167,320.147 55.960,320.035 55.708 C 319.583 54.699,318.609 53.593,317.430 52.750 C 317.173 52.567,316.864 52.323,316.743 52.208 C 316.623 52.094,316.450 52.000,316.359 52.000 C 316.269 52.000,316.169 51.944,316.139 51.875 C 316.080 51.743,314.956 51.168,314.042 50.802 C 313.744 50.683,313.500 50.529,313.500 50.459 C 313.500 50.390,313.444 50.346,313.375 50.362 C 313.065 50.433,311.571 50.102,311.467 49.939 C 311.346 49.751,304.668 49.546,304.495 49.724 M344.125 49.778 C 343.598 49.818,343.167 49.915,343.167 49.995 C 343.167 50.075,342.678 50.192,342.081 50.256 C 341.484 50.320,340.954 50.439,340.905 50.520 C 340.855 50.601,340.631 50.667,340.407 50.667 C 340.183 50.667,340.000 50.742,340.000 50.833 C 340.000 50.925,339.830 51.000,339.623 51.000 C 339.415 51.000,338.973 51.146,338.641 51.324 C 338.308 51.502,338.002 51.613,337.959 51.570 C 337.916 51.527,337.786 51.606,337.670 51.746 C 337.554 51.886,337.351 52.000,337.218 52.000 C 337.085 52.000,336.872 52.094,336.744 52.208 C 336.192 52.703,336.004 52.833,335.840 52.833 C 335.745 52.833,335.667 52.908,335.667 53.000 C 335.667 53.092,335.570 53.167,335.453 53.167 C 335.335 53.167,334.985 53.373,334.676 53.625 C 333.834 54.311,332.802 55.333,332.952 55.334 C 333.024 55.334,332.895 55.502,332.664 55.709 C 332.434 55.915,332.059 56.364,331.831 56.707 C 331.603 57.050,331.360 57.332,331.292 57.332 C 331.223 57.333,331.167 57.446,331.167 57.583 C 331.167 57.721,331.092 57.833,331.000 57.833 C 330.908 57.833,330.833 57.979,330.833 58.157 C 330.833 58.335,330.764 58.523,330.679 58.576 C 330.594 58.628,330.433 58.952,330.322 59.294 C 330.211 59.636,329.988 60.106,329.826 60.337 C 329.664 60.568,329.479 61.112,329.413 61.547 C 329.348 61.982,329.233 62.376,329.157 62.423 C 329.081 62.469,328.968 63.031,328.905 63.670 C 328.842 64.310,328.725 64.833,328.645 64.833 C 328.565 64.833,328.500 66.633,328.500 68.833 C 328.500 71.033,328.566 72.833,328.647 72.833 C 328.728 72.833,328.847 73.471,328.912 74.250 C 328.977 75.029,329.090 75.667,329.163 75.667 C 329.236 75.667,329.349 76.021,329.414 76.455 C 329.479 76.889,329.675 77.445,329.851 77.691 C 330.026 77.937,330.219 78.387,330.280 78.690 C 330.340 78.993,330.525 79.386,330.689 79.563 C 330.854 79.739,330.949 79.947,330.901 80.025 C 330.853 80.103,330.893 80.167,330.990 80.167 C 331.087 80.167,331.167 80.273,331.167 80.403 C 331.167 80.533,331.226 80.664,331.299 80.694 C 331.371 80.725,331.603 81.031,331.812 81.375 C 332.022 81.719,332.263 82.000,332.347 82.000 C 332.431 82.000,332.500 82.112,332.500 82.250 C 332.500 82.387,332.565 82.500,332.645 82.500 C 332.725 82.500,332.969 82.762,333.187 83.082 C 333.405 83.402,333.658 83.667,333.750 83.670 C 333.842 83.673,334.124 83.888,334.378 84.147 C 334.632 84.406,335.101 84.758,335.420 84.930 C 335.739 85.102,336.000 85.300,336.000 85.371 C 336.000 85.442,336.112 85.500,336.250 85.500 C 336.387 85.500,336.500 85.575,336.500 85.667 C 336.500 85.758,336.594 85.836,336.708 85.839 C 336.823 85.842,337.217 85.990,337.583 86.167 C 337.950 86.344,338.344 86.491,338.458 86.494 C 338.573 86.497,338.667 86.557,338.667 86.626 C 338.667 86.805,339.534 87.166,340.238 87.280 C 340.565 87.333,340.833 87.436,340.833 87.509 C 340.833 87.581,341.340 87.688,341.958 87.748 C 342.577 87.807,343.233 87.922,343.417 88.003 C 344.480 88.477,355.333 88.484,355.333 88.011 C 355.333 87.941,355.986 87.832,356.784 87.771 C 357.582 87.710,358.276 87.597,358.326 87.520 C 358.376 87.443,358.771 87.327,359.204 87.264 C 359.638 87.200,360.036 87.077,360.089 86.990 C 360.143 86.904,360.374 86.833,360.603 86.833 C 360.832 86.833,360.978 86.767,360.928 86.685 C 360.878 86.603,361.098 86.487,361.418 86.427 C 361.738 86.367,362.000 86.247,362.000 86.159 C 362.000 86.072,362.139 86.000,362.308 86.000 C 362.673 86.000,364.338 84.842,364.895 84.200 C 364.999 84.081,365.243 83.812,365.438 83.603 C 365.634 83.393,365.845 83.059,365.908 82.861 C 365.971 82.662,366.086 82.500,366.165 82.500 C 366.243 82.500,366.359 82.256,366.423 81.958 C 366.486 81.660,366.595 81.342,366.665 81.250 C 366.998 80.811,367.303 77.833,367.014 77.833 C 366.915 77.833,366.833 77.721,366.833 77.583 C 366.833 77.446,366.758 77.333,366.667 77.333 C 366.575 77.333,366.500 77.181,366.500 76.995 C 366.500 76.809,366.369 76.616,366.208 76.566 C 366.048 76.516,365.786 76.406,365.627 76.321 C 365.229 76.108,358.549 76.120,358.417 76.333 C 358.360 76.425,358.146 76.500,357.940 76.500 C 357.735 76.500,357.477 76.590,357.367 76.700 C 357.257 76.810,357.167 76.848,357.167 76.785 C 357.167 76.621,356.586 77.103,355.474 78.189 C 354.635 79.008,353.872 79.451,353.458 79.361 C 353.390 79.346,353.333 79.408,353.333 79.500 C 353.333 79.592,353.198 79.667,353.033 79.667 C 352.868 79.667,352.639 79.760,352.525 79.875 C 352.371 80.028,351.423 80.083,348.963 80.083 C 346.430 80.083,345.594 80.032,345.542 79.875 C 345.503 79.760,345.328 79.667,345.153 79.667 C 344.977 79.667,344.833 79.592,344.833 79.500 C 344.833 79.408,344.777 79.341,344.708 79.351 C 344.424 79.392,343.850 79.118,343.767 78.900 C 343.717 78.772,343.581 78.666,343.464 78.665 C 343.346 78.664,343.100 78.472,342.917 78.238 C 342.733 78.004,342.460 77.675,342.309 77.506 C 342.158 77.338,341.982 76.963,341.918 76.672 C 341.854 76.381,341.757 76.188,341.702 76.243 C 341.575 76.369,341.164 74.976,341.051 74.042 C 341.005 73.652,340.899 73.333,340.817 73.333 C 340.734 73.333,340.667 73.183,340.667 73.000 C 340.667 72.669,340.778 72.667,353.758 72.667 C 367.621 72.667,367.833 72.655,367.833 71.912 C 367.833 71.777,367.908 71.667,368.000 71.667 C 368.092 71.667,368.167 71.479,368.167 71.250 C 368.167 71.021,368.238 70.833,368.325 70.833 C 368.420 70.833,368.452 70.274,368.405 69.458 C 368.362 68.702,368.285 67.352,368.235 66.458 C 368.185 65.565,368.085 64.833,368.013 64.833 C 367.941 64.833,367.833 64.256,367.774 63.551 C 367.714 62.846,367.608 62.227,367.538 62.176 C 367.468 62.125,367.317 61.719,367.201 61.273 C 367.086 60.827,366.843 60.138,366.662 59.740 C 366.481 59.343,366.333 58.945,366.333 58.856 C 366.333 58.767,366.277 58.669,366.208 58.639 C 366.140 58.608,365.934 58.283,365.752 57.917 C 365.569 57.550,365.376 57.212,365.323 57.167 C 365.269 57.121,365.025 56.746,364.781 56.333 C 364.536 55.921,364.336 55.648,364.335 55.726 C 364.334 55.805,363.865 55.383,363.292 54.788 C 362.719 54.194,361.912 53.493,361.500 53.231 C 361.087 52.968,360.690 52.659,360.617 52.543 C 360.543 52.428,360.343 52.333,360.172 52.333 C 360.001 52.333,359.836 52.277,359.806 52.208 C 359.717 52.008,358.725 51.500,358.423 51.500 C 358.271 51.500,358.188 51.434,358.237 51.354 C 358.287 51.274,358.029 51.161,357.664 51.102 C 357.299 51.044,357.000 50.937,357.000 50.864 C 357.000 50.702,355.541 50.337,354.417 50.218 C 353.958 50.170,353.535 50.054,353.477 49.960 C 353.367 49.785,345.960 49.641,344.125 49.778 M350.500 57.979 C 350.500 58.058,350.875 58.173,351.333 58.234 C 351.792 58.295,352.167 58.416,352.167 58.503 C 352.167 58.589,352.354 58.707,352.583 58.765 C 352.813 58.822,353.000 58.949,353.000 59.046 C 353.000 59.143,353.044 59.179,353.097 59.125 C 353.150 59.072,353.469 59.341,353.805 59.723 C 354.141 60.104,354.456 60.454,354.504 60.500 C 354.778 60.762,355.167 61.535,355.167 61.818 C 355.167 61.999,355.238 62.191,355.326 62.246 C 355.414 62.300,355.443 62.454,355.392 62.589 C 355.340 62.723,355.381 62.833,355.482 62.833 C 355.592 62.833,355.667 63.169,355.667 63.667 C 355.667 64.125,355.742 64.500,355.833 64.500 C 355.925 64.500,356.000 64.688,356.000 64.917 L 356.000 65.333 348.333 65.333 L 340.667 65.333 340.667 64.677 C 340.667 64.315,340.742 63.973,340.833 63.917 C 340.925 63.860,341.000 63.593,341.000 63.323 C 341.000 63.054,341.067 62.833,341.148 62.833 C 341.230 62.833,341.349 62.552,341.413 62.208 C 341.635 61.026,343.314 58.970,344.251 58.735 C 344.479 58.678,344.667 58.564,344.667 58.482 C 344.667 58.400,344.798 58.329,344.958 58.324 C 345.119 58.319,345.512 58.215,345.833 58.094 C 346.493 57.844,350.500 57.745,350.500 57.979 M73.500 62.269 C 73.362 62.321,72.987 62.485,72.667 62.633 C 72.346 62.782,72.027 62.888,71.958 62.868 C 71.890 62.849,71.833 62.908,71.833 63.000 C 71.833 63.092,71.754 63.167,71.657 63.167 C 71.560 63.167,71.136 63.429,70.716 63.750 C 70.296 64.071,69.995 64.333,70.047 64.333 C 70.099 64.333,69.941 64.550,69.696 64.815 C 69.026 65.538,68.833 65.801,68.833 65.993 C 68.833 66.089,68.758 66.167,68.667 66.167 C 68.575 66.167,68.512 66.223,68.526 66.292 C 68.556 66.432,68.397 66.888,68.110 67.485 C 67.834 68.058,67.847 72.747,68.125 73.025 C 68.240 73.140,68.333 73.368,68.333 73.533 C 68.333 73.698,68.390 73.833,68.459 73.833 C 68.529 73.833,68.678 74.040,68.792 74.292 C 69.221 75.240,71.402 77.293,71.875 77.193 C 71.944 77.179,72.000 77.242,72.000 77.333 C 72.000 77.425,72.112 77.500,72.250 77.500 C 72.387 77.500,72.500 77.570,72.500 77.656 C 72.500 77.743,72.837 77.864,73.250 77.925 C 73.662 77.987,74.000 78.104,74.000 78.186 C 74.000 78.391,77.456 78.373,77.583 78.167 C 77.640 78.075,77.882 78.000,78.122 78.000 C 78.716 78.000,80.698 77.019,80.559 76.793 C 80.498 76.695,80.526 76.663,80.621 76.722 C 80.857 76.867,82.520 75.229,82.919 74.458 C 83.097 74.115,83.300 73.833,83.371 73.833 C 83.442 73.833,83.500 73.652,83.500 73.431 C 83.500 73.209,83.594 72.997,83.708 72.958 C 83.863 72.907,83.917 72.227,83.917 70.320 L 83.917 67.750 83.304 66.579 C 82.966 65.935,82.498 65.200,82.262 64.945 C 82.026 64.691,81.833 64.430,81.832 64.366 C 81.832 64.302,81.550 64.063,81.207 63.835 C 80.864 63.606,80.546 63.381,80.500 63.333 C 80.454 63.286,80.117 63.098,79.750 62.915 C 79.383 62.733,79.030 62.508,78.965 62.417 C 78.838 62.240,73.931 62.107,73.500 62.269 M17.937 86.966 C 17.884 87.052,17.261 87.160,16.553 87.205 C 15.808 87.253,15.239 87.368,15.202 87.477 C 15.167 87.581,15.000 87.667,14.829 87.667 C 14.659 87.667,14.473 87.743,14.415 87.836 C 14.357 87.929,14.240 87.962,14.155 87.910 C 14.070 87.857,14.000 87.874,14.000 87.948 C 14.000 88.023,13.660 88.298,13.246 88.560 C 12.413 89.086,10.833 91.053,10.833 91.564 C 10.833 91.743,10.779 91.835,10.714 91.769 C 10.648 91.703,10.487 92.047,10.357 92.533 C 10.052 93.671,9.914 96.647,10.155 96.888 C 10.253 96.986,10.333 97.247,10.333 97.466 C 10.333 98.176,11.444 100.173,12.240 100.895 C 13.059 101.639,14.302 102.500,14.557 102.500 C 14.709 102.500,14.833 102.570,14.833 102.656 C 14.833 102.743,15.171 102.864,15.583 102.925 C 15.996 102.987,16.333 103.108,16.333 103.193 C 16.333 103.282,17.123 103.337,18.167 103.322 C 19.175 103.307,20.000 103.238,20.000 103.169 C 20.000 103.099,20.282 102.998,20.626 102.943 C 21.425 102.815,22.655 102.223,22.776 101.909 C 22.827 101.776,22.956 101.667,23.062 101.667 C 23.359 101.667,25.167 99.801,25.167 99.494 C 25.167 99.406,25.236 99.333,25.320 99.333 C 25.461 99.333,25.727 98.482,25.665 98.230 C 25.650 98.170,25.726 98.066,25.833 98.000 C 25.940 97.934,26.063 97.438,26.105 96.898 C 26.148 96.358,26.211 95.779,26.246 95.610 C 26.338 95.167,26.052 92.589,25.870 92.225 C 25.785 92.056,25.573 91.617,25.400 91.250 C 25.028 90.466,24.958 90.369,24.083 89.427 C 23.717 89.031,23.247 88.656,23.039 88.592 C 22.832 88.528,22.705 88.406,22.757 88.321 C 22.810 88.236,22.699 88.167,22.510 88.167 C 22.321 88.167,22.167 88.093,22.167 88.003 C 22.167 87.913,21.960 87.790,21.708 87.730 C 21.456 87.670,21.163 87.552,21.056 87.468 C 20.949 87.385,20.349 87.256,19.723 87.182 C 19.096 87.109,18.460 86.995,18.309 86.930 C 18.157 86.864,17.990 86.881,17.937 86.966 "
              stroke="none" fill="#2c7cc4" fill-rule="evenodd"></path>
        <path id="path1"
              d="M51.333 0.176 C 50.004 0.260,48.744 0.405,48.534 0.498 C 48.323 0.591,47.855 0.667,47.492 0.667 C 47.130 0.667,46.833 0.733,46.833 0.814 C 46.833 0.895,46.271 1.014,45.583 1.078 C 44.896 1.142,44.333 1.253,44.333 1.324 C 44.333 1.395,43.868 1.501,43.299 1.561 C 42.730 1.620,42.190 1.743,42.099 1.834 C 42.008 1.925,41.761 2.000,41.550 2.000 C 41.339 2.000,41.167 2.066,41.167 2.147 C 41.167 2.229,40.754 2.346,40.250 2.409 C 39.746 2.472,39.333 2.585,39.333 2.660 C 39.333 2.734,38.996 2.846,38.583 2.908 C 38.171 2.970,37.833 3.091,37.833 3.177 C 37.833 3.263,37.646 3.333,37.417 3.333 C 37.188 3.333,37.000 3.408,37.000 3.500 C 37.000 3.592,36.869 3.667,36.708 3.668 C 36.548 3.668,36.215 3.774,35.970 3.902 C 35.724 4.030,35.292 4.186,35.011 4.248 C 34.730 4.309,34.500 4.429,34.500 4.513 C 34.500 4.598,34.313 4.667,34.083 4.667 C 33.854 4.667,33.667 4.736,33.667 4.820 C 33.667 4.904,33.442 5.023,33.167 5.083 C 32.892 5.144,32.667 5.259,32.667 5.339 C 32.667 5.419,32.404 5.534,32.083 5.594 C 31.762 5.655,31.500 5.770,31.500 5.852 C 31.500 5.933,31.387 6.000,31.250 6.000 C 31.113 6.000,31.000 6.069,31.000 6.153 C 31.000 6.238,30.775 6.356,30.500 6.417 C 30.225 6.477,30.000 6.587,30.000 6.662 C 30.000 6.736,29.798 6.848,29.552 6.910 C 29.305 6.972,28.973 7.172,28.814 7.355 C 28.655 7.539,28.480 7.679,28.425 7.668 C 28.253 7.634,26.833 8.386,26.833 8.511 C 26.833 8.577,26.646 8.678,26.417 8.735 C 26.188 8.793,26.000 8.913,26.000 9.003 C 26.000 9.093,25.887 9.167,25.750 9.167 C 25.613 9.167,25.500 9.240,25.500 9.330 C 25.500 9.420,25.313 9.541,25.083 9.598 C 24.854 9.656,24.667 9.758,24.667 9.825 C 24.667 9.892,24.409 10.086,24.094 10.256 C 23.778 10.426,23.554 10.620,23.596 10.687 C 23.638 10.754,23.502 10.862,23.294 10.927 C 23.087 10.992,22.879 11.093,22.833 11.152 C 22.763 11.242,21.852 11.963,21.026 12.582 C 20.902 12.674,20.472 13.050,20.070 13.417 C 19.071 14.327,18.862 14.500,18.760 14.500 C 18.609 14.500,14.500 18.647,14.500 18.800 C 14.500 18.880,14.294 19.135,14.042 19.367 C 13.790 19.600,13.396 20.034,13.167 20.333 C 12.938 20.631,12.544 21.094,12.292 21.360 C 12.040 21.627,11.833 21.918,11.833 22.007 C 11.833 22.096,11.646 22.332,11.417 22.531 C 11.188 22.730,11.000 22.995,11.000 23.119 C 11.000 23.242,10.890 23.386,10.756 23.437 C 10.622 23.489,10.462 23.693,10.399 23.890 C 10.337 24.088,10.165 24.364,10.018 24.502 C 9.706 24.797,9.399 25.263,9.170 25.792 C 9.081 25.998,8.940 26.167,8.857 26.167 C 8.774 26.167,8.661 26.298,8.608 26.458 C 8.497 26.788,8.140 27.374,7.972 27.502 C 7.910 27.548,7.807 27.798,7.742 28.057 C 7.677 28.316,7.446 28.706,7.228 28.923 C 7.011 29.140,6.833 29.472,6.833 29.659 C 6.833 29.847,6.764 30.000,6.680 30.000 C 6.596 30.000,6.477 30.225,6.417 30.500 C 6.356 30.775,6.238 31.000,6.153 31.000 C 6.069 31.000,6.000 31.113,6.000 31.250 C 6.000 31.387,5.928 31.500,5.841 31.500 C 5.753 31.500,5.633 31.763,5.572 32.083 C 5.512 32.404,5.402 32.667,5.328 32.667 C 5.254 32.667,5.144 32.892,5.083 33.167 C 5.023 33.442,4.904 33.667,4.820 33.667 C 4.736 33.667,4.667 33.854,4.667 34.083 C 4.667 34.313,4.598 34.500,4.513 34.500 C 4.429 34.500,4.311 34.724,4.250 34.998 C 4.190 35.272,4.072 35.539,3.987 35.591 C 3.903 35.644,3.833 35.802,3.833 35.943 C 3.833 36.175,3.516 37.008,3.174 37.672 C 3.102 37.813,2.987 38.188,2.919 38.505 C 2.851 38.823,2.726 39.169,2.642 39.274 C 2.557 39.379,2.443 39.848,2.388 40.316 C 2.332 40.784,2.222 41.167,2.143 41.167 C 2.065 41.167,2.000 41.339,2.000 41.550 C 2.000 41.761,1.925 42.008,1.834 42.099 C 1.743 42.190,1.620 42.730,1.561 43.299 C 1.501 43.868,1.393 44.333,1.320 44.333 C 1.247 44.333,1.135 44.860,1.072 45.504 C 1.008 46.147,0.891 46.714,0.811 46.764 C 0.732 46.813,0.667 47.171,0.667 47.560 C 0.667 47.949,0.594 48.339,0.506 48.427 C -0.056 48.990,-0.055 64.679,0.508 65.241 C 0.595 65.329,0.667 65.756,0.667 66.190 C 0.667 66.625,0.732 67.021,0.811 67.070 C 0.891 67.119,1.008 67.686,1.072 68.330 C 1.135 68.973,1.247 69.500,1.320 69.500 C 1.393 69.500,1.501 69.969,1.561 70.542 C 1.621 71.115,1.744 71.608,1.835 71.639 C 1.926 71.669,2.000 71.913,2.000 72.181 C 2.000 72.448,2.070 72.667,2.155 72.667 C 2.240 72.667,2.361 73.079,2.424 73.583 C 2.487 74.088,2.595 74.500,2.665 74.500 C 2.734 74.500,2.839 74.803,2.898 75.174 C 2.998 75.797,3.276 76.467,3.518 76.667 C 3.573 76.712,3.670 77.028,3.732 77.368 C 3.795 77.708,3.955 78.195,4.089 78.451 C 4.222 78.707,4.332 79.010,4.332 79.125 C 4.333 79.240,4.408 79.333,4.500 79.333 C 4.592 79.333,4.667 79.521,4.667 79.750 C 4.667 79.979,4.742 80.167,4.833 80.167 C 4.925 80.167,5.000 80.262,5.000 80.377 C 5.000 80.493,5.150 80.868,5.333 81.210 C 5.517 81.552,5.667 81.945,5.667 82.083 C 5.667 82.221,5.742 82.333,5.833 82.333 C 5.925 82.333,6.000 82.446,6.000 82.583 C 6.000 82.721,6.069 82.833,6.153 82.833 C 6.238 82.833,6.356 83.058,6.417 83.333 C 6.477 83.608,6.596 83.833,6.680 83.833 C 6.764 83.833,6.833 83.978,6.833 84.154 C 6.833 84.330,7.016 84.691,7.239 84.957 C 7.462 85.222,7.696 85.640,7.757 85.886 C 7.819 86.132,7.938 86.333,8.022 86.333 C 8.106 86.333,8.246 86.521,8.333 86.750 C 8.553 87.327,8.893 87.272,9.634 86.542 C 10.565 85.625,11.368 85.000,11.615 85.000 C 11.735 85.000,11.833 84.926,11.833 84.837 C 11.833 84.747,12.021 84.626,12.250 84.568 C 12.662 84.465,12.886 83.667,12.503 83.667 C 12.413 83.667,12.293 83.479,12.235 83.250 C 12.178 83.021,12.072 82.833,12.000 82.833 C 11.928 82.833,11.827 82.663,11.775 82.455 C 11.722 82.247,11.530 81.916,11.347 81.719 C 11.163 81.523,10.965 81.168,10.905 80.931 C 10.846 80.694,10.730 80.500,10.649 80.500 C 10.567 80.500,10.500 80.426,10.500 80.334 C 10.500 80.050,9.928 78.833,9.794 78.833 C 9.724 78.833,9.667 78.717,9.667 78.574 C 9.667 78.327,9.171 77.078,8.827 76.461 C 8.739 76.301,8.667 76.058,8.667 75.919 C 8.667 75.780,8.601 75.667,8.521 75.667 C 8.441 75.667,8.328 75.367,8.269 75.000 C 8.211 74.633,8.097 74.333,8.017 74.333 C 7.937 74.333,7.821 73.998,7.759 73.587 C 7.698 73.177,7.577 72.797,7.490 72.744 C 7.404 72.691,7.333 72.468,7.333 72.250 C 7.333 72.032,7.265 71.811,7.182 71.760 C 7.099 71.708,6.980 71.291,6.917 70.833 C 6.854 70.375,6.742 69.963,6.667 69.917 C 6.593 69.871,6.481 69.384,6.417 68.833 C 6.353 68.283,6.233 67.791,6.150 67.740 C 6.068 67.689,6.000 67.351,6.000 66.990 C 6.000 66.629,5.932 66.333,5.849 66.333 C 5.766 66.333,5.649 65.602,5.589 64.708 C 5.529 63.815,5.391 62.904,5.283 62.686 C 5.019 62.153,5.008 51.370,5.271 51.199 C 5.370 51.136,5.501 50.336,5.564 49.423 C 5.627 48.510,5.742 47.722,5.819 47.673 C 5.896 47.624,6.003 47.283,6.055 46.917 C 6.286 45.308,6.564 44.000,6.675 44.000 C 6.741 44.000,6.846 43.587,6.909 43.083 C 6.972 42.579,7.085 42.167,7.160 42.167 C 7.234 42.167,7.338 41.960,7.390 41.708 C 7.607 40.658,7.917 39.667,8.028 39.667 C 8.093 39.667,8.197 39.329,8.259 38.917 C 8.321 38.504,8.438 38.167,8.519 38.167 C 8.600 38.167,8.667 38.017,8.667 37.833 C 8.667 37.650,8.733 37.500,8.815 37.500 C 8.896 37.500,9.012 37.237,9.072 36.917 C 9.133 36.596,9.247 36.333,9.328 36.333 C 9.408 36.333,9.526 36.090,9.591 35.792 C 9.656 35.494,9.756 35.212,9.813 35.167 C 9.982 35.032,11.000 32.916,11.000 32.698 C 11.000 32.589,11.056 32.499,11.125 32.498 C 11.194 32.497,11.399 32.178,11.582 31.790 C 11.765 31.401,12.009 30.984,12.124 30.863 C 12.239 30.742,12.333 30.536,12.333 30.405 C 12.333 30.274,12.400 30.167,12.482 30.167 C 12.564 30.167,12.678 29.979,12.735 29.750 C 12.793 29.521,12.913 29.333,13.003 29.333 C 13.093 29.333,13.167 29.221,13.167 29.083 C 13.167 28.946,13.240 28.833,13.330 28.833 C 13.420 28.833,13.539 28.651,13.595 28.429 C 13.651 28.206,13.802 27.984,13.932 27.934 C 14.061 27.884,14.167 27.745,14.167 27.625 C 14.167 27.505,14.317 27.299,14.500 27.167 C 14.683 27.035,14.833 26.842,14.833 26.739 C 14.833 26.635,14.983 26.378,15.167 26.167 C 15.350 25.955,15.500 25.686,15.500 25.569 C 15.500 25.452,15.646 25.309,15.825 25.253 C 16.003 25.196,16.196 25.003,16.253 24.825 C 16.309 24.646,16.426 24.500,16.511 24.500 C 16.597 24.500,16.667 24.418,16.667 24.318 C 16.667 24.219,17.004 23.809,17.417 23.408 C 17.829 23.007,18.167 22.569,18.167 22.434 C 18.167 22.299,18.317 22.142,18.500 22.083 C 18.683 22.025,18.833 21.915,18.833 21.839 C 18.833 21.718,20.207 20.315,21.666 18.948 C 21.942 18.690,22.167 18.409,22.167 18.323 C 22.167 18.237,22.276 18.167,22.410 18.167 C 22.544 18.167,23.001 17.829,23.426 17.417 C 23.850 17.004,24.250 16.667,24.314 16.667 C 24.378 16.667,24.695 16.418,25.017 16.113 C 25.340 15.809,25.731 15.511,25.885 15.452 C 26.040 15.392,26.167 15.271,26.167 15.183 C 26.167 15.095,26.303 14.979,26.471 14.926 C 26.638 14.873,26.923 14.699,27.105 14.540 C 27.527 14.169,27.985 13.875,28.458 13.670 C 28.665 13.581,28.833 13.440,28.833 13.357 C 28.833 13.274,28.965 13.161,29.125 13.108 C 29.438 13.003,30.030 12.647,30.167 12.483 C 30.212 12.428,30.531 12.250,30.875 12.089 C 31.219 11.927,31.500 11.729,31.500 11.648 C 31.500 11.566,31.594 11.500,31.708 11.499 C 31.901 11.499,33.301 10.836,34.083 10.375 C 34.586 10.078,35.958 9.500,36.158 9.500 C 36.254 9.500,36.333 9.425,36.333 9.333 C 36.333 9.242,36.446 9.167,36.583 9.167 C 36.721 9.167,36.833 9.092,36.833 9.000 C 36.833 8.908,37.002 8.833,37.208 8.832 C 37.415 8.832,37.785 8.726,38.030 8.598 C 38.276 8.470,38.724 8.311,39.025 8.245 C 39.541 8.131,39.686 8.074,40.493 7.670 C 40.672 7.580,41.122 7.458,41.493 7.398 C 41.863 7.339,42.167 7.234,42.167 7.165 C 42.167 7.095,42.579 6.987,43.083 6.924 C 43.587 6.861,44.000 6.748,44.000 6.674 C 44.000 6.600,44.487 6.487,45.082 6.423 C 45.676 6.359,46.206 6.238,46.258 6.154 C 46.310 6.069,46.634 6.000,46.977 6.000 C 47.319 6.000,47.671 5.929,47.758 5.842 C 47.845 5.755,48.629 5.633,49.500 5.570 C 50.371 5.507,51.189 5.372,51.317 5.269 C 51.639 5.013,62.540 5.023,62.858 5.279 C 62.982 5.379,63.814 5.514,64.708 5.579 C 65.602 5.644,66.375 5.766,66.426 5.849 C 66.478 5.932,66.773 6.000,67.083 6.000 C 67.393 6.000,67.690 6.069,67.742 6.154 C 67.794 6.238,68.324 6.359,68.918 6.423 C 69.513 6.487,70.000 6.596,70.000 6.667 C 70.000 6.737,70.412 6.846,70.917 6.909 C 71.421 6.972,71.833 7.084,71.833 7.157 C 71.833 7.230,72.203 7.339,72.654 7.399 C 73.106 7.459,73.499 7.563,73.529 7.629 C 73.600 7.787,75.165 8.335,75.542 8.334 C 75.702 8.334,75.833 8.402,75.833 8.485 C 75.833 8.569,76.133 8.688,76.500 8.750 C 76.867 8.812,77.167 8.931,77.167 9.015 C 77.167 9.098,77.279 9.167,77.417 9.167 C 77.554 9.167,77.667 9.241,77.667 9.331 C 77.667 9.422,77.967 9.544,78.333 9.603 C 78.700 9.661,79.000 9.767,79.000 9.837 C 79.000 9.907,79.205 10.015,79.457 10.078 C 79.708 10.142,79.952 10.244,79.998 10.306 C 80.045 10.368,80.608 10.681,81.250 11.001 C 81.892 11.321,82.442 11.640,82.472 11.708 C 82.503 11.777,82.634 11.833,82.764 11.833 C 82.894 11.833,83.000 11.908,83.000 12.000 C 83.000 12.092,83.107 12.167,83.238 12.167 C 83.369 12.167,83.579 12.269,83.704 12.395 C 83.830 12.520,84.097 12.675,84.299 12.739 C 84.501 12.803,84.667 12.926,84.667 13.011 C 84.667 13.097,84.779 13.167,84.917 13.167 C 85.054 13.167,85.167 13.242,85.167 13.333 C 85.167 13.425,85.282 13.500,85.422 13.500 C 85.562 13.500,85.720 13.612,85.773 13.750 C 85.826 13.887,86.007 14.000,86.176 14.000 C 86.345 14.000,86.543 14.107,86.617 14.238 C 86.866 14.683,87.737 14.998,88.721 14.999 C 90.970 15.001,92.034 12.154,90.345 10.654 C 89.479 9.885,88.961 9.500,88.792 9.500 C 88.716 9.500,88.489 9.347,88.288 9.160 C 88.087 8.973,87.753 8.778,87.545 8.725 C 87.337 8.673,87.167 8.567,87.167 8.490 C 87.167 8.412,86.885 8.219,86.542 8.059 C 86.198 7.900,85.692 7.602,85.417 7.398 C 85.142 7.193,84.710 6.974,84.458 6.912 C 84.206 6.849,84.000 6.736,84.000 6.662 C 84.000 6.587,83.775 6.477,83.500 6.417 C 83.225 6.356,83.000 6.241,83.000 6.160 C 83.000 6.080,82.625 5.881,82.167 5.718 C 81.708 5.555,81.333 5.370,81.333 5.307 C 81.333 5.245,81.108 5.144,80.833 5.083 C 80.558 5.023,80.333 4.904,80.333 4.820 C 80.333 4.736,80.220 4.667,80.081 4.667 C 79.942 4.667,79.699 4.596,79.539 4.511 C 78.809 4.117,78.087 3.833,77.567 3.736 C 77.255 3.677,77.000 3.563,77.000 3.481 C 77.000 3.400,76.854 3.333,76.677 3.333 C 76.499 3.333,76.309 3.263,76.256 3.176 C 76.203 3.090,75.823 2.969,75.413 2.907 C 75.002 2.846,74.667 2.734,74.667 2.660 C 74.667 2.585,74.254 2.472,73.750 2.409 C 73.246 2.346,72.833 2.229,72.833 2.147 C 72.833 2.066,72.650 2.000,72.427 2.000 C 72.203 2.000,71.975 1.928,71.921 1.841 C 71.867 1.754,71.375 1.631,70.828 1.570 C 70.281 1.508,69.833 1.399,69.833 1.329 C 69.833 1.259,69.233 1.148,68.500 1.083 C 67.767 1.018,67.167 0.905,67.167 0.832 C 67.167 0.759,66.810 0.657,66.375 0.607 C 65.940 0.556,65.021 0.441,64.333 0.350 C 62.510 0.110,54.143 -0.002,51.333 0.176 M54.167 15.667 C 54.029 15.756,53.335 15.829,52.625 15.831 C 51.915 15.832,51.333 15.899,51.333 15.979 C 51.333 16.058,50.658 16.176,49.833 16.241 C 49.008 16.306,48.333 16.417,48.333 16.489 C 48.333 16.560,47.868 16.668,47.299 16.727 C 46.730 16.787,46.190 16.910,46.099 17.001 C 46.008 17.092,45.761 17.167,45.550 17.167 C 45.339 17.167,45.167 17.232,45.167 17.312 C 45.167 17.392,44.792 17.507,44.333 17.568 C 43.875 17.628,43.500 17.751,43.500 17.839 C 43.500 17.928,43.331 18.000,43.125 18.001 C 42.919 18.002,42.535 18.114,42.273 18.251 C 42.010 18.388,41.691 18.500,41.564 18.500 C 41.437 18.500,41.333 18.567,41.333 18.648 C 41.333 18.730,41.071 18.845,40.750 18.906 C 40.429 18.966,40.167 19.078,40.167 19.156 C 40.167 19.233,39.904 19.345,39.583 19.406 C 39.262 19.466,39.000 19.587,39.000 19.674 C 39.000 19.762,38.887 19.833,38.750 19.833 C 38.612 19.833,38.500 19.908,38.500 20.000 C 38.500 20.092,38.444 20.159,38.375 20.149 C 37.347 20.000,37.286 20.857,38.255 21.831 C 38.665 22.242,39.000 22.674,39.000 22.789 C 39.000 22.905,39.074 23.000,39.163 23.000 C 39.253 23.000,39.374 23.188,39.432 23.417 C 39.489 23.646,39.603 23.833,39.685 23.833 C 39.766 23.833,39.833 23.937,39.833 24.063 C 39.833 24.530,40.283 24.717,40.828 24.476 C 41.106 24.353,41.333 24.202,41.333 24.141 C 41.333 24.079,41.634 23.979,42.001 23.917 C 42.368 23.855,42.626 23.735,42.574 23.652 C 42.523 23.568,42.654 23.500,42.865 23.499 C 43.077 23.498,43.465 23.386,43.727 23.249 C 43.990 23.112,44.309 23.000,44.436 23.000 C 44.563 23.000,44.667 22.932,44.667 22.848 C 44.667 22.764,44.966 22.645,45.332 22.583 C 45.699 22.522,46.037 22.408,46.085 22.330 C 46.133 22.253,46.583 22.139,47.086 22.076 C 47.589 22.013,48.000 21.895,48.000 21.814 C 48.000 21.733,48.262 21.667,48.583 21.667 C 48.904 21.667,49.167 21.599,49.167 21.517 C 49.167 21.435,49.785 21.314,50.542 21.249 C 51.298 21.183,52.022 21.044,52.151 20.940 C 52.475 20.677,61.800 20.678,61.967 20.942 C 62.031 21.044,62.702 21.181,63.458 21.247 C 64.215 21.314,64.833 21.435,64.833 21.517 C 64.833 21.599,65.096 21.667,65.417 21.667 C 65.737 21.667,66.000 21.736,66.000 21.821 C 66.000 21.906,66.412 22.028,66.917 22.091 C 67.421 22.154,67.833 22.267,67.833 22.342 C 67.833 22.418,68.171 22.530,68.583 22.592 C 68.996 22.654,69.333 22.771,69.333 22.852 C 69.333 22.934,69.441 23.000,69.572 23.000 C 69.703 23.000,70.296 23.225,70.890 23.500 C 71.484 23.775,72.083 24.000,72.221 24.000 C 72.359 24.000,72.497 24.056,72.528 24.125 C 72.558 24.194,73.108 24.512,73.750 24.833 C 74.392 25.154,74.942 25.473,74.972 25.542 C 75.003 25.610,75.102 25.667,75.192 25.667 C 75.283 25.667,75.470 25.779,75.607 25.917 C 75.745 26.054,76.081 26.167,76.355 26.167 C 76.645 26.167,76.810 26.236,76.750 26.333 C 76.690 26.430,76.856 26.500,77.147 26.500 C 77.422 26.500,77.693 26.425,77.750 26.333 C 77.807 26.242,78.024 26.167,78.232 26.167 C 79.209 26.167,80.434 23.391,79.667 22.917 C 79.575 22.860,79.500 22.706,79.500 22.573 C 79.500 22.212,78.630 21.451,77.958 21.226 C 77.798 21.172,77.667 21.065,77.667 20.988 C 77.667 20.911,77.404 20.799,77.083 20.739 C 76.762 20.679,76.500 20.572,76.500 20.501 C 76.500 20.430,76.369 20.327,76.208 20.272 C 76.048 20.217,75.686 20.029,75.404 19.855 C 75.122 19.681,74.653 19.487,74.362 19.423 C 74.071 19.359,73.833 19.246,73.833 19.171 C 73.833 19.097,73.627 18.986,73.375 18.925 C 72.744 18.773,72.000 18.441,72.000 18.312 C 72.000 18.253,71.662 18.154,71.250 18.092 C 70.837 18.030,70.500 17.916,70.500 17.839 C 70.500 17.761,70.125 17.646,69.667 17.583 C 69.208 17.520,68.833 17.401,68.833 17.318 C 68.833 17.235,68.661 17.167,68.450 17.167 C 68.239 17.167,67.992 17.092,67.901 17.001 C 67.810 16.910,67.270 16.787,66.701 16.727 C 66.132 16.668,65.667 16.560,65.667 16.489 C 65.667 16.417,64.992 16.306,64.167 16.241 C 63.342 16.176,62.667 16.058,62.667 15.979 C 62.667 15.899,62.034 15.833,61.260 15.833 C 60.486 15.833,59.807 15.758,59.750 15.667 C 59.616 15.450,54.502 15.450,54.167 15.667 M100.995 21.866 C 100.723 22.164,100.500 22.470,100.500 22.545 C 100.500 22.621,99.975 23.206,99.333 23.845 C 98.692 24.484,98.167 25.045,98.167 25.093 C 98.167 25.194,98.700 26.046,98.838 26.167 C 98.891 26.212,99.096 26.512,99.294 26.833 C 99.492 27.154,99.844 27.635,100.077 27.901 C 100.310 28.167,100.500 28.486,100.500 28.609 C 100.500 28.732,100.574 28.833,100.663 28.833 C 100.753 28.833,100.874 29.021,100.932 29.250 C 100.989 29.479,101.103 29.667,101.185 29.667 C 101.266 29.667,101.333 29.779,101.333 29.917 C 101.333 30.054,101.407 30.167,101.497 30.167 C 101.587 30.167,101.707 30.354,101.765 30.583 C 101.822 30.813,101.928 31.000,102.000 31.000 C 102.072 31.000,102.173 31.170,102.225 31.378 C 102.278 31.586,102.470 31.917,102.653 32.114 C 102.837 32.311,103.035 32.665,103.095 32.902 C 103.154 33.139,103.270 33.333,103.351 33.333 C 103.433 33.333,103.500 33.408,103.500 33.499 C 103.500 33.766,104.068 35.000,104.191 35.000 C 104.253 35.000,104.355 35.300,104.417 35.667 C 104.479 36.033,104.582 36.333,104.647 36.333 C 104.711 36.333,104.905 36.746,105.076 37.250 C 105.247 37.754,105.441 38.167,105.506 38.167 C 105.571 38.167,105.672 38.467,105.731 38.833 C 105.789 39.200,105.903 39.500,105.983 39.500 C 106.063 39.500,106.179 39.836,106.241 40.246 C 106.302 40.656,106.423 41.036,106.510 41.089 C 106.596 41.143,106.667 41.369,106.667 41.593 C 106.667 41.817,106.734 42.000,106.817 42.000 C 106.900 42.000,107.019 42.450,107.083 43.000 C 107.147 43.550,107.261 44.000,107.336 44.000 C 107.412 44.000,107.526 44.487,107.589 45.083 C 107.653 45.679,107.772 46.167,107.853 46.167 C 107.934 46.167,108.000 46.452,108.000 46.800 C 108.000 47.148,108.071 47.505,108.157 47.592 C 108.243 47.679,108.366 48.517,108.430 49.454 C 108.495 50.391,108.601 51.124,108.667 51.083 C 108.872 50.956,109.034 56.839,108.907 59.828 C 108.841 61.389,108.733 62.667,108.667 62.667 C 108.602 62.667,108.495 63.435,108.431 64.375 C 108.367 65.315,108.244 66.108,108.157 66.139 C 108.071 66.169,108.000 66.484,108.000 66.837 C 108.000 67.191,107.934 67.521,107.853 67.571 C 107.772 67.621,107.654 68.151,107.590 68.748 C 107.526 69.345,107.410 69.833,107.332 69.833 C 107.254 69.833,107.139 70.246,107.076 70.750 C 107.013 71.254,106.895 71.667,106.814 71.667 C 106.733 71.667,106.667 71.850,106.667 72.073 C 106.667 72.297,106.596 72.524,106.510 72.577 C 106.423 72.631,106.302 73.010,106.241 73.421 C 106.179 73.831,106.067 74.167,105.991 74.167 C 105.916 74.167,105.803 74.504,105.741 74.917 C 105.679 75.329,105.581 75.667,105.522 75.667 C 105.392 75.667,105.060 76.410,104.908 77.042 C 104.847 77.294,104.736 77.500,104.662 77.500 C 104.587 77.500,104.474 77.744,104.409 78.042 C 104.344 78.340,104.245 78.621,104.187 78.667 C 104.008 78.811,103.500 79.792,103.500 79.996 C 103.500 80.103,103.388 80.303,103.250 80.440 C 103.112 80.578,103.000 80.835,103.000 81.012 C 103.000 81.189,102.925 81.333,102.833 81.333 C 102.742 81.333,102.667 81.446,102.667 81.583 C 102.667 81.721,102.598 81.833,102.513 81.833 C 102.429 81.833,102.310 82.058,102.250 82.333 C 102.190 82.608,102.073 82.833,101.990 82.833 C 101.907 82.833,101.793 83.021,101.735 83.250 C 101.678 83.479,101.564 83.667,101.482 83.667 C 101.400 83.667,101.333 83.779,101.333 83.917 C 101.333 84.054,101.260 84.167,101.170 84.167 C 101.080 84.167,100.959 84.354,100.902 84.583 C 100.844 84.813,100.735 85.000,100.660 85.000 C 100.584 85.000,100.474 85.152,100.415 85.339 C 100.356 85.525,100.145 85.852,99.945 86.065 C 99.393 86.655,99.000 87.215,99.000 87.410 C 99.000 87.507,98.850 87.680,98.667 87.795 C 98.483 87.909,98.333 88.098,98.333 88.214 C 98.333 88.331,98.202 88.550,98.042 88.701 C 97.677 89.046,97.333 89.462,97.333 89.561 C 97.333 89.602,96.958 90.025,96.500 90.500 C 96.042 90.976,95.705 91.427,95.752 91.504 C 95.800 91.580,95.691 91.689,95.511 91.747 C 95.331 91.804,95.139 91.993,95.083 92.167 C 95.028 92.341,94.836 92.530,94.656 92.587 C 94.476 92.644,94.368 92.755,94.417 92.833 C 94.465 92.912,94.358 93.023,94.178 93.080 C 93.998 93.137,93.807 93.311,93.755 93.467 C 93.703 93.623,93.400 93.938,93.083 94.167 C 92.766 94.396,92.464 94.711,92.412 94.866 C 92.359 95.022,92.169 95.196,91.989 95.253 C 91.809 95.311,91.705 95.427,91.757 95.512 C 91.810 95.597,91.743 95.667,91.608 95.667 C 91.474 95.667,91.001 96.000,90.557 96.408 C 89.190 97.665,89.000 97.825,89.000 97.719 C 89.000 97.662,88.860 97.777,88.689 97.974 C 88.518 98.172,88.311 98.335,88.230 98.336 C 88.150 98.338,87.904 98.528,87.686 98.758 C 87.467 98.989,87.250 99.139,87.203 99.092 C 87.156 99.045,86.997 99.144,86.850 99.313 C 86.703 99.481,86.415 99.672,86.208 99.737 C 86.002 99.803,85.833 99.926,85.833 100.011 C 85.833 100.097,85.729 100.167,85.601 100.167 C 85.473 100.167,85.326 100.279,85.273 100.417 C 85.220 100.554,85.020 100.667,84.829 100.667 C 84.637 100.667,84.525 100.739,84.580 100.828 C 84.635 100.917,84.490 101.038,84.257 101.097 C 84.024 101.155,83.833 101.262,83.833 101.333 C 83.833 101.405,83.663 101.507,83.455 101.559 C 83.247 101.611,82.922 101.798,82.733 101.974 C 82.544 102.150,82.151 102.347,81.861 102.411 C 81.571 102.474,81.333 102.577,81.332 102.638 C 81.331 102.700,80.998 102.896,80.592 103.074 C 80.186 103.253,79.887 103.452,79.928 103.518 C 79.968 103.584,79.701 103.688,79.334 103.750 C 78.967 103.812,78.667 103.925,78.667 104.001 C 78.667 104.078,78.442 104.190,78.167 104.250 C 77.892 104.310,77.667 104.411,77.667 104.473 C 77.667 104.609,76.931 104.938,76.261 105.100 C 75.992 105.165,75.580 105.319,75.344 105.441 C 75.109 105.564,74.790 105.665,74.635 105.666 C 74.480 105.666,74.307 105.742,74.250 105.833 C 74.193 105.925,73.964 106.000,73.740 106.000 C 73.516 106.000,73.333 106.070,73.333 106.156 C 73.333 106.243,72.996 106.364,72.583 106.425 C 72.171 106.487,71.833 106.596,71.833 106.666 C 71.833 106.737,71.421 106.846,70.917 106.909 C 70.412 106.972,70.000 107.094,70.000 107.179 C 70.000 107.264,69.737 107.333,69.417 107.333 C 69.096 107.333,68.833 107.400,68.833 107.480 C 68.833 107.561,68.252 107.682,67.542 107.748 C 66.831 107.814,66.211 107.932,66.162 108.009 C 66.114 108.086,65.364 108.201,64.496 108.263 C 63.627 108.326,62.814 108.460,62.688 108.560 C 62.369 108.813,51.631 108.813,51.312 108.560 C 51.186 108.460,50.374 108.326,49.507 108.264 C 48.640 108.201,47.852 108.087,47.757 108.010 C 47.661 107.933,47.040 107.817,46.375 107.752 C 45.710 107.686,45.167 107.565,45.167 107.483 C 45.167 107.401,44.904 107.333,44.583 107.333 C 44.262 107.333,44.000 107.264,44.000 107.179 C 44.000 107.094,43.587 106.972,43.083 106.909 C 42.579 106.846,42.167 106.738,42.167 106.669 C 42.167 106.599,41.863 106.494,41.493 106.435 C 41.122 106.376,40.672 106.253,40.493 106.164 C 40.313 106.074,40.020 105.926,39.841 105.836 C 39.661 105.747,39.211 105.624,38.841 105.565 C 38.470 105.506,38.167 105.395,38.167 105.320 C 38.167 105.244,37.904 105.133,37.583 105.072 C 37.262 105.012,37.000 104.896,37.000 104.815 C 37.000 104.733,36.850 104.667,36.667 104.667 C 36.483 104.667,36.333 104.592,36.333 104.500 C 36.333 104.408,36.254 104.333,36.158 104.333 C 35.969 104.333,34.627 103.774,34.089 103.471 C 33.052 102.886,31.898 102.333,31.713 102.333 C 31.596 102.333,31.500 102.258,31.500 102.167 C 31.500 102.075,31.387 102.000,31.250 102.000 C 31.113 102.000,31.000 101.930,31.000 101.845 C 31.000 101.759,30.831 101.636,30.625 101.572 C 30.419 101.508,30.205 101.384,30.149 101.298 C 29.949 100.988,28.667 100.927,28.667 101.228 C 28.667 101.378,28.592 101.500,28.500 101.500 C 28.408 101.500,28.333 101.610,28.333 101.744 C 28.333 101.877,28.169 102.140,27.969 102.327 C 27.768 102.514,27.659 102.667,27.726 102.667 C 27.793 102.667,27.425 103.080,26.907 103.585 C 25.953 104.517,25.843 104.891,26.455 105.117 C 26.617 105.177,26.787 105.269,26.833 105.321 C 26.977 105.485,27.570 105.839,27.875 105.941 C 28.035 105.995,28.167 106.097,28.167 106.168 C 28.167 106.239,28.354 106.344,28.583 106.402 C 28.812 106.459,29.000 106.574,29.000 106.657 C 29.000 106.739,29.225 106.856,29.500 106.917 C 29.775 106.977,30.000 107.090,30.000 107.167 C 30.000 107.244,30.225 107.356,30.500 107.417 C 30.775 107.477,31.000 107.596,31.000 107.680 C 31.000 107.764,31.113 107.833,31.250 107.833 C 31.387 107.833,31.500 107.900,31.500 107.981 C 31.500 108.063,31.762 108.179,32.083 108.239 C 32.404 108.299,32.667 108.414,32.667 108.494 C 32.667 108.575,32.892 108.690,33.167 108.750 C 33.442 108.810,33.667 108.929,33.667 109.013 C 33.667 109.098,33.854 109.167,34.083 109.167 C 34.313 109.167,34.500 109.241,34.500 109.331 C 34.500 109.422,34.800 109.544,35.167 109.603 C 35.533 109.661,35.833 109.769,35.833 109.841 C 35.833 109.914,36.055 110.022,36.326 110.082 C 36.597 110.141,37.132 110.341,37.513 110.525 C 37.895 110.710,38.461 110.902,38.771 110.952 C 39.080 111.003,39.333 111.103,39.333 111.176 C 39.333 111.250,39.746 111.361,40.250 111.424 C 40.754 111.487,41.167 111.605,41.167 111.686 C 41.167 111.767,41.350 111.833,41.573 111.833 C 41.797 111.833,42.022 111.901,42.073 111.984 C 42.124 112.066,42.616 112.186,43.167 112.250 C 43.717 112.314,44.205 112.427,44.251 112.502 C 44.298 112.577,44.898 112.691,45.584 112.755 C 46.271 112.820,46.833 112.939,46.833 113.020 C 46.833 113.100,47.193 113.167,47.633 113.167 C 48.073 113.167,48.505 113.238,48.592 113.325 C 49.179 113.911,65.078 113.896,65.306 113.310 C 65.336 113.231,65.725 113.167,66.171 113.167 C 66.616 113.167,67.021 113.101,67.071 113.020 C 67.121 112.939,67.725 112.820,68.414 112.756 C 69.103 112.691,69.667 112.580,69.667 112.510 C 69.667 112.439,70.132 112.332,70.701 112.273 C 71.270 112.213,71.810 112.090,71.901 111.999 C 71.992 111.908,72.239 111.833,72.450 111.833 C 72.661 111.833,72.833 111.767,72.833 111.686 C 72.833 111.605,73.246 111.487,73.750 111.424 C 74.254 111.361,74.667 111.250,74.667 111.176 C 74.667 111.103,74.920 111.003,75.229 110.952 C 75.539 110.902,76.113 110.706,76.505 110.517 C 76.897 110.327,77.469 110.125,77.776 110.068 C 78.082 110.010,78.333 109.905,78.333 109.833 C 78.333 109.762,78.596 109.655,78.917 109.594 C 79.237 109.534,79.500 109.413,79.500 109.326 C 79.500 109.238,79.646 109.167,79.823 109.167 C 80.001 109.167,80.190 109.097,80.242 109.013 C 80.294 108.928,80.561 108.810,80.835 108.750 C 81.109 108.689,81.333 108.571,81.333 108.487 C 81.333 108.402,81.408 108.333,81.499 108.333 C 81.768 108.333,83.000 107.765,83.000 107.641 C 83.000 107.578,83.225 107.477,83.500 107.417 C 83.775 107.356,84.002 107.257,84.003 107.195 C 84.005 107.134,84.416 106.896,84.917 106.667 C 85.417 106.438,85.828 106.194,85.830 106.125 C 85.832 106.056,85.946 106.000,86.083 106.000 C 86.221 106.000,86.333 105.926,86.333 105.837 C 86.333 105.747,86.521 105.626,86.750 105.568 C 86.979 105.511,87.167 105.405,87.167 105.333 C 87.167 105.262,87.354 105.156,87.583 105.098 C 87.813 105.041,88.000 104.920,88.000 104.830 C 88.000 104.740,88.112 104.667,88.250 104.667 C 88.388 104.667,88.500 104.597,88.500 104.511 C 88.500 104.426,88.669 104.303,88.875 104.238 C 89.081 104.173,89.415 103.943,89.617 103.727 C 89.819 103.510,90.063 103.333,90.159 103.333 C 90.255 103.333,90.333 103.260,90.333 103.170 C 90.333 103.080,90.506 102.963,90.718 102.910 C 90.930 102.857,91.240 102.630,91.408 102.407 C 91.576 102.183,91.781 102.000,91.864 102.000 C 92.029 102.000,92.265 101.817,92.992 101.125 C 93.258 100.873,93.523 100.667,93.583 100.667 C 93.643 100.667,93.908 100.460,94.172 100.208 C 94.436 99.956,94.884 99.563,95.169 99.333 C 96.024 98.645,98.753 95.917,99.268 95.236 C 99.533 94.886,100.031 94.333,100.375 94.008 C 100.718 93.683,101.000 93.350,101.000 93.270 C 101.000 93.189,101.135 93.001,101.300 92.853 C 101.464 92.705,101.781 92.321,102.003 92.000 C 102.544 91.220,102.684 91.040,103.125 90.560 C 103.331 90.335,103.500 90.085,103.500 90.004 C 103.500 89.923,103.594 89.758,103.708 89.637 C 104.056 89.269,104.833 88.196,104.833 88.083 C 104.833 88.025,105.021 87.732,105.250 87.431 C 105.479 87.131,105.667 86.829,105.667 86.761 C 105.667 86.692,105.817 86.445,106.000 86.212 C 106.183 85.979,106.333 85.690,106.333 85.569 C 106.333 85.449,106.521 85.148,106.750 84.901 C 106.979 84.654,107.167 84.312,107.167 84.142 C 107.167 83.972,107.234 83.833,107.315 83.833 C 107.397 83.833,107.515 83.628,107.578 83.377 C 107.642 83.126,107.746 82.882,107.810 82.835 C 107.977 82.714,109.000 80.581,109.000 80.355 C 109.000 80.251,109.087 80.167,109.194 80.167 C 109.301 80.167,109.339 80.116,109.277 80.055 C 109.216 79.994,109.265 79.787,109.386 79.597 C 109.507 79.406,109.778 78.762,109.989 78.167 C 110.199 77.571,110.520 76.751,110.701 76.344 C 110.883 75.937,111.071 75.356,111.121 75.052 C 111.170 74.748,111.270 74.500,111.343 74.500 C 111.416 74.500,111.528 74.088,111.591 73.583 C 111.654 73.079,111.771 72.667,111.853 72.667 C 111.934 72.667,112.000 72.484,112.000 72.260 C 112.000 72.036,112.070 71.810,112.155 71.757 C 112.240 71.705,112.362 71.231,112.426 70.706 C 112.489 70.180,112.603 69.672,112.679 69.576 C 112.755 69.480,112.868 68.880,112.931 68.243 C 112.994 67.605,113.108 67.002,113.186 66.903 C 113.264 66.803,113.378 65.960,113.439 65.028 C 113.500 64.096,113.614 63.333,113.692 63.333 C 113.770 63.333,113.833 62.625,113.833 61.760 C 113.833 60.891,113.908 60.140,114.000 60.083 C 114.101 60.021,114.167 58.807,114.167 57.000 C 114.167 55.193,114.101 53.979,114.000 53.917 C 113.907 53.859,113.833 53.082,113.833 52.157 C 113.833 51.246,113.769 50.500,113.690 50.500 C 113.612 50.500,113.494 49.658,113.429 48.628 C 113.364 47.598,113.251 46.717,113.177 46.669 C 113.104 46.622,112.989 46.058,112.922 45.417 C 112.855 44.775,112.743 44.175,112.673 44.083 C 112.603 43.992,112.495 43.579,112.433 43.167 C 112.371 42.754,112.184 42.004,112.018 41.500 C 111.851 40.996,111.549 40.021,111.346 39.333 C 111.143 38.646,110.907 37.953,110.822 37.794 C 110.736 37.635,110.667 37.354,110.667 37.169 C 110.667 36.984,110.593 36.833,110.502 36.833 C 110.411 36.833,110.289 36.533,110.231 36.167 C 110.172 35.800,110.074 35.500,110.013 35.500 C 109.952 35.500,109.762 35.087,109.591 34.583 C 109.419 34.079,109.222 33.667,109.153 33.667 C 109.083 33.667,108.977 33.442,108.917 33.167 C 108.856 32.892,108.746 32.667,108.672 32.667 C 108.598 32.667,108.490 32.417,108.433 32.113 C 108.376 31.808,108.183 31.402,108.005 31.210 C 107.826 31.018,107.631 30.668,107.572 30.431 C 107.513 30.194,107.397 30.000,107.315 30.000 C 107.234 30.000,107.167 29.880,107.167 29.734 C 107.167 29.445,106.709 28.557,106.375 28.199 C 106.260 28.077,106.167 27.869,106.167 27.738 C 106.167 27.607,106.092 27.500,106.000 27.500 C 105.908 27.500,105.833 27.387,105.833 27.250 C 105.833 27.113,105.760 27.000,105.670 27.000 C 105.580 27.000,105.459 26.813,105.402 26.583 C 105.344 26.354,105.228 26.167,105.144 26.167 C 105.060 26.167,104.919 25.998,104.830 25.792 C 104.595 25.249,104.292 24.794,103.958 24.483 C 103.798 24.333,103.667 24.141,103.667 24.056 C 103.667 23.880,103.254 23.301,102.721 22.731 C 102.522 22.518,102.317 22.210,102.265 22.047 C 102.046 21.357,101.527 21.283,100.995 21.866 M54.996 31.386 C 54.948 31.437,54.404 31.496,53.788 31.516 C 53.171 31.536,52.667 31.607,52.667 31.673 C 52.667 31.740,52.104 31.847,51.417 31.911 C 50.729 31.976,50.167 32.097,50.167 32.181 C 50.167 32.265,50.000 32.333,49.797 32.333 C 49.404 32.333,47.973 32.826,47.833 33.009 C 47.788 33.069,47.469 33.170,47.125 33.234 C 46.781 33.297,46.500 33.414,46.500 33.494 C 46.500 33.575,46.275 33.690,46.000 33.750 C 45.725 33.810,45.500 33.929,45.500 34.013 C 45.500 34.098,45.350 34.167,45.167 34.167 C 44.983 34.167,44.833 34.236,44.833 34.320 C 44.833 34.404,44.608 34.523,44.333 34.583 C 44.058 34.644,43.833 34.753,43.833 34.827 C 43.833 34.901,43.702 35.005,43.542 35.059 C 43.168 35.184,42.712 35.485,42.177 35.958 C 41.944 36.165,41.700 36.333,41.634 36.333 C 41.569 36.333,41.328 36.521,41.098 36.750 C 40.869 36.979,40.634 37.167,40.576 37.167 C 40.426 37.167,37.167 40.438,37.167 40.588 C 37.167 40.656,36.979 40.886,36.750 41.098 C 36.521 41.310,36.333 41.551,36.333 41.633 C 36.333 41.715,36.145 41.999,35.916 42.266 C 35.686 42.532,35.451 42.897,35.394 43.076 C 35.336 43.255,35.187 43.504,35.061 43.629 C 34.936 43.755,34.833 43.964,34.833 44.095 C 34.833 44.226,34.758 44.333,34.667 44.333 C 34.575 44.333,34.500 44.446,34.500 44.583 C 34.500 44.721,34.431 44.833,34.347 44.833 C 34.262 44.833,34.144 45.058,34.083 45.333 C 34.023 45.608,33.913 45.833,33.839 45.833 C 33.764 45.833,33.655 46.096,33.594 46.417 C 33.534 46.737,33.413 47.000,33.326 47.000 C 33.238 47.000,33.167 47.104,33.167 47.231 C 33.167 47.358,33.055 47.677,32.918 47.939 C 32.781 48.202,32.668 48.585,32.668 48.792 C 32.667 48.998,32.599 49.167,32.516 49.167 C 32.434 49.167,32.314 49.617,32.250 50.167 C 32.186 50.717,32.066 51.167,31.984 51.167 C 31.901 51.167,31.833 51.452,31.833 51.800 C 31.833 52.148,31.740 52.527,31.625 52.642 C 31.470 52.797,31.417 53.886,31.417 56.917 C 31.417 59.948,31.470 61.036,31.625 61.192 C 31.740 61.306,31.833 61.685,31.833 62.033 C 31.833 62.382,31.901 62.667,31.984 62.667 C 32.066 62.667,32.186 63.117,32.250 63.666 C 32.314 64.216,32.434 64.624,32.516 64.573 C 32.599 64.522,32.667 64.691,32.668 64.948 C 32.668 65.206,32.781 65.631,32.918 65.894 C 33.055 66.157,33.167 66.475,33.167 66.602 C 33.167 66.729,33.233 66.833,33.315 66.833 C 33.396 66.833,33.512 67.096,33.572 67.417 C 33.633 67.737,33.747 68.000,33.828 68.000 C 33.908 68.000,34.023 68.225,34.083 68.500 C 34.144 68.775,34.262 69.000,34.347 69.000 C 34.431 69.000,34.500 69.106,34.500 69.236 C 34.500 69.366,34.556 69.497,34.625 69.528 C 34.694 69.558,34.937 69.942,35.166 70.381 C 35.395 70.819,35.752 71.375,35.958 71.615 C 36.164 71.855,36.333 72.117,36.333 72.196 C 36.333 72.275,36.596 72.594,36.917 72.906 C 37.237 73.217,37.500 73.523,37.500 73.585 C 37.500 73.739,40.267 76.500,40.422 76.500 C 40.491 76.500,40.762 76.725,41.025 77.000 C 41.288 77.275,41.615 77.500,41.751 77.500 C 41.888 77.500,42.000 77.562,42.000 77.639 C 42.000 77.715,42.394 78.029,42.875 78.338 C 43.356 78.646,43.788 78.948,43.833 79.010 C 43.879 79.071,44.104 79.179,44.333 79.250 C 44.563 79.321,44.788 79.428,44.833 79.489 C 44.949 79.644,46.094 80.167,46.317 80.167 C 46.418 80.167,46.500 80.241,46.500 80.331 C 46.500 80.422,46.800 80.544,47.167 80.603 C 47.533 80.661,47.833 80.775,47.833 80.855 C 47.833 80.935,48.021 81.000,48.250 81.000 C 48.479 81.000,48.667 81.070,48.667 81.156 C 48.667 81.243,49.005 81.364,49.419 81.426 C 49.832 81.488,50.208 81.598,50.253 81.672 C 50.298 81.745,50.898 81.858,51.584 81.922 C 52.271 81.986,52.833 82.094,52.833 82.162 C 52.833 82.368,56.876 82.523,59.078 82.401 C 60.221 82.337,61.123 82.232,61.083 82.166 C 61.042 82.101,61.545 81.997,62.201 81.936 C 62.856 81.875,63.472 81.759,63.571 81.678 C 63.669 81.597,64.106 81.478,64.542 81.413 C 64.977 81.349,65.333 81.229,65.333 81.148 C 65.333 81.066,65.521 81.000,65.750 81.000 C 65.979 81.000,66.167 80.932,66.167 80.848 C 66.167 80.764,66.467 80.645,66.833 80.583 C 67.200 80.521,67.500 80.402,67.500 80.319 C 67.500 80.235,67.612 80.167,67.750 80.167 C 68.224 80.167,68.001 79.471,67.292 78.737 C 66.122 77.527,65.667 76.963,65.667 76.726 C 65.667 76.602,65.592 76.500,65.500 76.500 C 65.408 76.500,65.333 76.377,65.333 76.227 C 65.333 75.921,63.705 76.002,63.509 76.318 C 63.455 76.406,63.018 76.530,62.539 76.594 C 62.059 76.658,61.667 76.775,61.667 76.855 C 61.667 76.935,61.373 77.000,61.014 77.000 C 60.655 77.000,60.332 77.089,60.295 77.197 C 60.202 77.478,53.798 77.478,53.705 77.197 C 53.668 77.089,53.350 77.000,52.996 77.000 C 52.642 77.000,52.311 76.932,52.260 76.849 C 52.208 76.766,51.791 76.646,51.333 76.583 C 50.875 76.520,50.500 76.410,50.500 76.339 C 50.500 76.268,50.200 76.161,49.833 76.103 C 49.467 76.044,49.167 75.930,49.167 75.850 C 49.167 75.770,48.904 75.655,48.583 75.594 C 48.262 75.534,47.999 75.432,47.998 75.367 C 47.997 75.303,47.678 75.101,47.290 74.919 C 46.901 74.737,46.546 74.546,46.500 74.495 C 46.382 74.363,44.310 73.000,44.227 73.000 C 44.077 73.000,41.187 70.019,40.898 69.566 C 40.728 69.300,40.457 68.985,40.295 68.866 C 40.133 68.746,40.000 68.537,40.000 68.402 C 40.000 68.267,39.892 68.115,39.760 68.064 C 39.628 68.014,39.475 67.764,39.419 67.509 C 39.363 67.254,39.174 66.891,38.998 66.703 C 38.823 66.515,38.632 66.168,38.572 65.932 C 38.513 65.696,38.413 65.534,38.350 65.573 C 38.287 65.612,38.225 65.497,38.211 65.317 C 38.198 65.138,38.072 64.761,37.931 64.479 C 37.791 64.197,37.627 63.711,37.569 63.398 C 37.510 63.085,37.396 62.789,37.314 62.738 C 37.233 62.688,37.167 62.426,37.167 62.157 C 37.167 61.887,37.098 61.667,37.014 61.667 C 36.930 61.667,36.811 61.085,36.749 60.375 C 36.595 58.619,36.581 58.525,36.449 58.393 C 36.298 58.243,36.298 55.591,36.449 55.440 C 36.581 55.308,36.595 55.214,36.749 53.458 C 36.811 52.748,36.930 52.167,37.014 52.167 C 37.098 52.167,37.167 51.946,37.167 51.677 C 37.167 51.407,37.237 51.143,37.324 51.089 C 37.410 51.036,37.531 50.656,37.593 50.246 C 37.654 49.836,37.768 49.500,37.845 49.500 C 37.922 49.500,38.034 49.237,38.094 48.917 C 38.155 48.596,38.261 48.333,38.331 48.333 C 38.401 48.333,38.500 48.127,38.551 47.875 C 38.602 47.623,38.796 47.254,38.982 47.056 C 39.168 46.857,39.367 46.507,39.425 46.276 C 39.483 46.046,39.636 45.817,39.765 45.767 C 39.894 45.718,40.000 45.530,40.000 45.350 C 40.000 45.170,40.146 44.976,40.325 44.919 C 40.503 44.863,40.698 44.665,40.756 44.480 C 40.865 44.138,44.075 40.833,44.298 40.833 C 44.365 40.833,44.611 40.665,44.844 40.458 C 45.378 39.985,45.835 39.684,46.208 39.559 C 46.369 39.505,46.500 39.403,46.500 39.332 C 46.500 39.261,46.688 39.156,46.917 39.098 C 47.146 39.041,47.333 38.926,47.333 38.843 C 47.333 38.761,47.558 38.644,47.833 38.583 C 48.108 38.523,48.333 38.404,48.333 38.320 C 48.333 38.236,48.521 38.167,48.750 38.167 C 48.979 38.167,49.167 38.098,49.167 38.013 C 49.167 37.929,49.408 37.807,49.703 37.742 C 49.998 37.677,50.354 37.562,50.495 37.486 C 50.867 37.285,52.579 36.833,52.970 36.833 C 53.155 36.833,53.336 36.742,53.373 36.631 C 53.462 36.363,60.463 36.340,60.635 36.608 C 60.698 36.707,60.975 36.830,61.250 36.883 C 62.410 37.104,63.425 37.411,63.535 37.574 C 63.828 38.006,66.887 37.783,67.420 37.290 C 68.538 36.255,67.884 33.188,66.542 33.171 C 66.335 33.169,66.167 33.104,66.167 33.028 C 66.167 32.825,65.015 32.505,64.708 32.623 C 64.534 32.689,64.486 32.657,64.566 32.528 C 64.646 32.399,64.545 32.333,64.270 32.333 C 64.041 32.333,63.810 32.264,63.758 32.180 C 63.706 32.095,63.158 31.973,62.540 31.908 C 61.922 31.842,61.376 31.725,61.325 31.648 C 61.223 31.489,55.133 31.237,54.996 31.386 M88.625 34.506 C 87.731 35.415,87.000 36.280,87.000 36.429 C 87.000 36.753,87.518 37.667,87.703 37.667 C 87.775 37.667,87.833 37.774,87.833 37.905 C 87.833 38.036,87.927 38.245,88.042 38.371 C 88.237 38.584,88.393 38.849,89.125 40.208 C 89.285 40.506,89.463 40.787,89.519 40.833 C 89.576 40.879,89.676 41.104,89.742 41.333 C 89.954 42.065,90.244 42.667,90.384 42.667 C 90.459 42.667,90.477 42.736,90.424 42.822 C 90.371 42.907,90.404 43.024,90.497 43.082 C 90.590 43.139,90.667 43.369,90.667 43.593 C 90.667 43.817,90.741 44.000,90.831 44.000 C 90.922 44.000,91.044 44.300,91.103 44.667 C 91.161 45.033,91.266 45.333,91.336 45.333 C 91.405 45.333,91.501 45.540,91.548 45.792 C 91.595 46.044,91.686 46.438,91.750 46.667 C 91.814 46.896,91.905 47.290,91.952 47.542 C 91.999 47.794,92.097 48.000,92.169 48.000 C 92.241 48.000,92.352 48.525,92.417 49.167 C 92.481 49.808,92.595 50.333,92.669 50.333 C 92.743 50.333,92.841 50.802,92.887 51.375 C 92.933 51.948,93.022 53.017,93.086 53.750 C 93.349 56.777,93.083 62.713,92.660 63.250 C 92.588 63.342,92.475 63.960,92.409 64.625 C 92.344 65.290,92.233 65.833,92.164 65.833 C 92.095 65.833,91.999 66.040,91.952 66.292 C 91.905 66.544,91.814 66.938,91.750 67.167 C 91.686 67.396,91.595 67.790,91.548 68.042 C 91.501 68.294,91.402 68.500,91.329 68.500 C 91.256 68.500,91.145 68.800,91.083 69.167 C 91.021 69.533,90.902 69.833,90.819 69.833 C 90.735 69.833,90.667 70.016,90.667 70.240 C 90.667 70.464,90.590 70.694,90.497 70.752 C 90.404 70.809,90.371 70.926,90.424 71.012 C 90.477 71.097,90.458 71.167,90.382 71.167 C 90.218 71.167,89.667 72.395,89.667 72.761 C 89.667 72.903,89.610 72.984,89.540 72.941 C 89.470 72.898,89.266 73.194,89.086 73.598 C 88.906 74.003,88.706 74.333,88.643 74.333 C 88.579 74.333,88.477 74.558,88.417 74.833 C 88.356 75.108,88.239 75.333,88.157 75.333 C 88.074 75.333,87.959 75.521,87.902 75.750 C 87.844 75.979,87.747 76.167,87.686 76.167 C 87.626 76.167,87.434 76.429,87.262 76.750 C 87.089 77.071,86.884 77.333,86.807 77.333 C 86.730 77.333,86.667 77.448,86.667 77.589 C 86.667 77.729,86.554 77.887,86.417 77.940 C 86.279 77.992,86.167 78.138,86.167 78.262 C 86.167 78.387,85.942 78.719,85.667 79.000 C 85.392 79.281,85.167 79.621,85.167 79.756 C 85.167 79.890,85.097 80.000,85.013 80.000 C 84.842 80.000,84.117 80.715,83.548 81.444 C 82.925 82.243,82.025 83.167,81.869 83.167 C 81.788 83.167,81.525 83.373,81.285 83.625 C 80.607 84.337,79.866 85.000,79.748 85.000 C 79.689 85.000,79.416 85.225,79.141 85.500 C 78.866 85.775,78.562 86.000,78.465 86.000 C 78.368 86.000,78.111 86.191,77.894 86.425 C 77.677 86.659,77.498 86.790,77.495 86.717 C 77.492 86.643,77.398 86.704,77.286 86.851 C 77.174 86.998,76.914 87.172,76.708 87.237 C 76.502 87.302,76.333 87.418,76.333 87.493 C 76.333 87.569,76.146 87.678,75.917 87.735 C 75.688 87.793,75.500 87.913,75.500 88.003 C 75.500 88.093,75.387 88.167,75.250 88.167 C 75.112 88.167,75.000 88.236,75.000 88.320 C 75.000 88.404,74.775 88.523,74.500 88.583 C 74.225 88.644,74.000 88.746,74.000 88.810 C 74.000 88.874,73.625 89.072,73.167 89.250 C 72.708 89.428,72.333 89.632,72.333 89.703 C 72.333 89.775,72.240 89.836,72.125 89.839 C 72.010 89.842,71.617 89.990,71.250 90.167 C 70.883 90.344,70.457 90.491,70.302 90.494 C 70.146 90.497,69.973 90.575,69.917 90.667 C 69.860 90.758,69.668 90.833,69.490 90.833 C 69.312 90.833,69.167 90.902,69.167 90.985 C 69.167 91.069,68.867 91.188,68.500 91.250 C 68.133 91.312,67.833 91.431,67.833 91.515 C 67.833 91.598,67.590 91.670,67.292 91.674 C 66.994 91.678,66.450 91.789,66.083 91.921 C 65.717 92.054,65.248 92.163,65.042 92.164 C 64.835 92.166,64.667 92.235,64.667 92.318 C 64.667 92.402,64.010 92.524,63.208 92.590 C 62.406 92.656,61.699 92.790,61.636 92.889 C 61.478 93.137,52.522 93.137,52.364 92.889 C 52.301 92.790,51.594 92.656,50.792 92.590 C 49.990 92.524,49.333 92.402,49.333 92.318 C 49.333 92.235,49.075 92.167,48.760 92.167 C 48.444 92.167,48.144 92.099,48.093 92.016 C 48.042 91.933,47.625 91.813,47.167 91.750 C 46.709 91.687,46.296 91.574,46.249 91.499 C 46.203 91.424,45.866 91.312,45.500 91.250 C 45.134 91.188,44.793 91.069,44.741 90.985 C 44.689 90.902,44.501 90.833,44.323 90.833 C 44.146 90.833,44.000 90.765,44.000 90.681 C 44.000 90.598,43.700 90.479,43.333 90.417 C 42.967 90.355,42.667 90.236,42.667 90.152 C 42.667 90.068,42.581 90.000,42.475 90.000 C 42.255 90.000,40.126 88.973,39.998 88.805 C 39.952 88.743,39.708 88.642,39.457 88.578 C 39.205 88.515,39.000 88.397,39.000 88.315 C 39.000 88.234,38.887 88.167,38.750 88.167 C 38.612 88.167,38.500 88.093,38.500 88.003 C 38.500 87.913,38.313 87.793,38.083 87.735 C 37.854 87.678,37.667 87.569,37.667 87.493 C 37.667 87.418,37.508 87.306,37.315 87.244 C 36.996 87.143,36.487 86.768,35.906 86.208 C 35.788 86.094,35.613 86.000,35.518 86.000 C 35.423 86.000,35.115 85.775,34.833 85.500 C 34.552 85.225,34.282 85.000,34.232 85.000 C 34.183 85.000,34.047 84.906,33.930 84.792 C 33.813 84.677,33.275 84.208,32.734 83.750 C 32.193 83.292,31.413 82.548,31.000 82.098 C 30.588 81.648,29.931 80.944,29.542 80.535 C 29.152 80.125,28.833 79.727,28.833 79.650 C 28.833 79.574,28.608 79.281,28.333 79.000 C 28.058 78.719,27.833 78.462,27.833 78.430 C 27.833 78.304,26.420 76.247,26.297 76.194 C 26.225 76.164,26.167 76.038,26.167 75.915 C 26.167 75.791,26.073 75.588,25.958 75.463 C 25.844 75.337,25.608 74.976,25.435 74.659 C 24.428 72.817,23.833 71.607,23.833 71.401 C 23.833 71.272,23.759 71.167,23.669 71.167 C 23.578 71.167,23.456 70.867,23.397 70.500 C 23.339 70.133,23.226 69.833,23.147 69.833 C 23.068 69.833,22.956 69.533,22.897 69.167 C 22.839 68.800,22.725 68.500,22.645 68.500 C 22.565 68.500,22.500 68.313,22.500 68.083 C 22.500 67.854,22.434 67.667,22.353 67.667 C 22.271 67.667,22.154 67.254,22.091 66.750 C 22.028 66.246,21.911 65.833,21.831 65.833 C 21.752 65.833,21.635 65.308,21.572 64.667 C 21.509 64.025,21.392 63.500,21.312 63.500 C 21.232 63.500,21.167 63.131,21.167 62.681 C 21.167 62.182,21.087 61.834,20.962 61.793 C 20.664 61.693,20.660 52.308,20.958 52.208 C 21.091 52.164,21.167 51.810,21.167 51.236 C 21.167 50.740,21.232 50.333,21.312 50.333 C 21.392 50.333,21.508 49.810,21.572 49.170 C 21.635 48.531,21.750 47.968,21.827 47.920 C 21.905 47.872,22.020 47.458,22.083 47.000 C 22.146 46.542,22.266 46.167,22.349 46.167 C 22.432 46.167,22.500 45.979,22.500 45.750 C 22.500 45.521,22.575 45.333,22.667 45.333 C 22.758 45.333,22.819 45.277,22.802 45.208 C 22.741 44.969,23.027 44.000,23.159 44.000 C 23.231 44.000,23.339 43.700,23.397 43.333 C 23.456 42.967,23.560 42.667,23.629 42.667 C 23.764 42.667,24.333 41.446,24.333 41.158 C 24.333 41.063,23.960 40.812,23.503 40.600 C 23.047 40.389,22.722 40.167,22.781 40.108 C 22.840 40.049,22.767 40.000,22.619 40.000 C 22.470 40.000,22.173 39.831,21.959 39.625 C 20.914 38.620,19.833 38.175,19.833 38.750 C 19.833 38.887,19.750 39.000,19.649 39.000 C 19.547 39.000,19.508 39.112,19.560 39.250 C 19.613 39.387,19.584 39.500,19.495 39.500 C 19.406 39.500,19.333 39.612,19.333 39.750 C 19.333 39.887,19.259 40.000,19.169 40.000 C 19.078 40.000,18.956 40.300,18.897 40.667 C 18.839 41.033,18.737 41.333,18.672 41.333 C 18.607 41.333,18.414 41.765,18.242 42.292 C 18.071 42.819,17.878 43.325,17.814 43.417 C 17.750 43.508,17.645 43.940,17.580 44.375 C 17.515 44.810,17.396 45.167,17.314 45.167 C 17.233 45.167,17.167 45.350,17.167 45.573 C 17.167 45.797,17.096 46.024,17.011 46.077 C 16.925 46.130,16.850 46.303,16.844 46.462 C 16.816 47.187,16.613 48.258,16.489 48.338 C 16.413 48.386,16.299 49.117,16.235 49.963 C 16.171 50.808,16.064 51.500,15.996 51.500 C 15.527 51.500,15.528 61.814,15.997 62.417 C 16.069 62.508,16.180 63.240,16.245 64.042 C 16.310 64.844,16.424 65.500,16.498 65.500 C 16.616 65.500,16.803 66.520,16.842 67.372 C 16.849 67.530,16.925 67.704,17.011 67.757 C 17.096 67.810,17.167 68.032,17.167 68.250 C 17.167 68.468,17.237 68.691,17.324 68.744 C 17.410 68.797,17.531 69.177,17.593 69.587 C 17.654 69.998,17.771 70.333,17.852 70.333 C 17.934 70.333,18.000 70.465,17.999 70.625 C 17.998 71.024,18.538 72.500,18.685 72.500 C 18.750 72.500,18.855 72.800,18.917 73.167 C 18.979 73.533,19.098 73.833,19.181 73.833 C 19.265 73.833,19.333 73.946,19.333 74.083 C 19.333 74.221,19.406 74.333,19.495 74.333 C 19.584 74.333,19.613 74.446,19.560 74.583 C 19.508 74.721,19.547 74.833,19.649 74.833 C 19.750 74.833,19.833 74.946,19.833 75.083 C 19.833 75.221,19.900 75.333,19.981 75.333 C 20.063 75.333,20.178 75.590,20.237 75.905 C 20.296 76.219,20.398 76.500,20.464 76.530 C 20.529 76.559,20.715 76.827,20.875 77.125 C 21.035 77.423,21.298 77.909,21.458 78.206 C 21.619 78.502,21.886 78.871,22.053 79.026 C 22.219 79.181,22.360 79.370,22.366 79.446 C 22.391 79.785,22.549 79.989,22.710 79.890 C 22.810 79.828,22.836 79.862,22.770 79.968 C 22.706 80.071,22.807 80.307,22.994 80.494 C 23.181 80.681,23.333 80.905,23.333 80.992 C 23.333 81.080,23.521 81.339,23.750 81.568 C 23.979 81.797,24.167 82.060,24.167 82.151 C 24.167 82.242,24.262 82.377,24.379 82.450 C 24.496 82.523,24.727 82.796,24.892 83.056 C 25.217 83.567,29.944 88.355,30.366 88.601 C 30.683 88.786,31.746 89.623,32.301 90.125 C 32.529 90.331,32.783 90.500,32.865 90.500 C 32.947 90.500,33.105 90.574,33.215 90.664 C 34.167 91.440,34.489 91.667,34.641 91.667 C 34.738 91.667,34.877 91.764,34.950 91.884 C 35.023 92.004,35.361 92.231,35.701 92.388 C 36.041 92.546,36.361 92.743,36.411 92.825 C 36.462 92.907,36.728 93.024,37.002 93.084 C 37.276 93.144,37.500 93.262,37.500 93.347 C 37.500 93.431,37.612 93.500,37.750 93.500 C 37.887 93.500,38.000 93.569,38.000 93.653 C 38.000 93.738,38.225 93.856,38.500 93.917 C 38.775 93.977,39.000 94.092,39.000 94.172 C 39.000 94.253,39.262 94.367,39.583 94.428 C 39.904 94.488,40.167 94.598,40.167 94.672 C 40.167 94.746,40.405 94.859,40.697 94.923 C 40.989 94.987,41.471 95.176,41.768 95.343 C 42.065 95.510,42.576 95.697,42.904 95.759 C 43.232 95.820,43.500 95.930,43.500 96.003 C 43.500 96.076,43.875 96.187,44.333 96.250 C 44.792 96.313,45.167 96.433,45.167 96.516 C 45.167 96.599,45.392 96.667,45.667 96.667 C 45.942 96.667,46.167 96.733,46.167 96.814 C 46.167 96.895,46.654 97.013,47.250 97.077 C 47.846 97.141,48.333 97.252,48.333 97.323 C 48.333 97.463,50.943 97.802,53.083 97.939 C 53.817 97.986,54.488 98.094,54.575 98.179 C 54.792 98.390,59.285 98.379,59.417 98.167 C 59.473 98.075,60.153 98.000,60.927 98.000 C 61.700 98.000,62.333 97.933,62.333 97.851 C 62.333 97.770,63.083 97.649,64.000 97.583 C 64.917 97.518,65.667 97.404,65.667 97.332 C 65.667 97.259,66.117 97.147,66.667 97.083 C 67.217 97.019,67.709 96.900,67.760 96.817 C 67.811 96.734,68.074 96.667,68.343 96.667 C 68.613 96.667,68.833 96.601,68.833 96.521 C 68.833 96.441,69.148 96.326,69.533 96.264 C 69.918 96.202,70.312 96.091,70.408 96.016 C 70.505 95.941,70.808 95.827,71.083 95.764 C 71.748 95.610,72.500 95.279,72.500 95.141 C 72.500 95.079,72.800 94.979,73.167 94.917 C 73.533 94.855,73.833 94.744,73.833 94.671 C 73.833 94.597,74.096 94.488,74.417 94.428 C 74.737 94.367,75.000 94.253,75.000 94.172 C 75.000 94.092,75.225 93.977,75.500 93.917 C 75.775 93.856,76.000 93.738,76.000 93.653 C 76.000 93.569,76.112 93.500,76.250 93.500 C 76.387 93.500,76.500 93.425,76.500 93.333 C 76.500 93.242,76.640 93.167,76.811 93.167 C 76.982 93.167,77.312 93.017,77.545 92.833 C 77.779 92.650,78.025 92.500,78.094 92.500 C 78.162 92.500,78.464 92.313,78.765 92.083 C 79.065 91.854,79.359 91.667,79.417 91.667 C 79.558 91.667,80.735 90.784,80.806 90.625 C 80.836 90.556,80.956 90.500,81.073 90.500 C 81.189 90.500,81.473 90.331,81.704 90.125 C 82.161 89.716,82.375 89.543,83.501 88.667 C 84.412 87.957,88.833 83.521,88.833 83.316 C 88.833 83.236,89.058 82.955,89.333 82.692 C 89.608 82.429,89.833 82.160,89.833 82.095 C 89.833 82.030,89.927 81.872,90.042 81.744 C 90.529 81.201,90.667 81.005,90.667 80.858 C 90.667 80.772,90.779 80.659,90.917 80.606 C 91.054 80.554,91.167 80.396,91.167 80.255 C 91.167 80.115,91.240 80.000,91.330 80.000 C 91.420 80.000,91.541 79.813,91.598 79.583 C 91.656 79.354,91.758 79.167,91.825 79.167 C 91.892 79.167,92.091 78.887,92.265 78.544 C 92.440 78.202,92.677 77.822,92.792 77.699 C 92.906 77.576,93.000 77.369,93.000 77.238 C 93.000 77.107,93.075 77.000,93.167 77.000 C 93.258 77.000,93.333 76.887,93.333 76.750 C 93.333 76.612,93.405 76.500,93.492 76.500 C 93.580 76.500,93.701 76.237,93.761 75.917 C 93.821 75.596,93.931 75.333,94.005 75.333 C 94.079 75.333,94.190 75.108,94.250 74.833 C 94.310 74.558,94.411 74.333,94.474 74.333 C 94.619 74.333,95.167 73.080,95.167 72.749 C 95.167 72.612,95.235 72.500,95.319 72.500 C 95.402 72.500,95.521 72.200,95.583 71.833 C 95.645 71.467,95.764 71.167,95.848 71.167 C 95.932 71.167,96.000 70.979,96.000 70.750 C 96.000 70.521,96.075 70.333,96.167 70.333 C 96.258 70.333,96.322 70.277,96.309 70.208 C 96.254 69.930,96.552 68.667,96.672 68.667 C 96.743 68.667,96.853 68.217,96.917 67.667 C 96.981 67.117,97.100 66.667,97.183 66.667 C 97.266 66.667,97.333 66.409,97.333 66.093 C 97.333 65.778,97.402 65.477,97.485 65.426 C 97.569 65.374,97.690 64.676,97.755 63.874 C 97.820 63.073,97.957 62.312,98.060 62.184 C 98.315 61.868,98.317 51.698,98.062 51.533 C 97.920 51.440,97.722 50.086,97.624 48.542 C 97.617 48.427,97.549 48.333,97.472 48.333 C 97.396 48.333,97.333 48.075,97.333 47.760 C 97.333 47.444,97.267 47.145,97.186 47.095 C 97.105 47.045,96.987 46.591,96.924 46.086 C 96.861 45.580,96.747 45.167,96.670 45.167 C 96.594 45.167,96.480 44.792,96.417 44.333 C 96.354 43.875,96.234 43.500,96.151 43.500 C 96.068 43.500,96.000 43.313,96.000 43.083 C 96.000 42.854,95.935 42.667,95.855 42.667 C 95.775 42.667,95.661 42.367,95.603 42.000 C 95.544 41.633,95.432 41.333,95.353 41.333 C 95.274 41.333,95.161 41.033,95.103 40.667 C 95.044 40.300,94.922 40.000,94.831 40.000 C 94.741 40.000,94.667 39.887,94.667 39.750 C 94.667 39.612,94.610 39.500,94.542 39.499 C 94.473 39.498,94.233 39.011,94.009 38.416 C 93.785 37.820,93.541 37.333,93.467 37.333 C 93.394 37.333,93.333 37.221,93.333 37.083 C 93.333 36.946,93.264 36.833,93.180 36.833 C 93.096 36.833,92.977 36.608,92.917 36.333 C 92.856 36.058,92.739 35.833,92.657 35.833 C 92.574 35.833,92.459 35.646,92.402 35.417 C 92.344 35.188,92.244 35.000,92.179 35.000 C 92.114 35.000,91.891 34.697,91.683 34.326 C 90.647 32.484,90.610 32.487,88.625 34.506 M177.167 38.319 C 177.167 38.402,176.867 38.521,176.500 38.583 C 176.133 38.645,175.833 38.764,175.833 38.848 C 175.833 38.932,175.722 39.000,175.587 39.000 C 175.451 39.000,175.293 39.188,175.235 39.417 C 175.178 39.646,175.075 39.833,175.007 39.833 C 174.336 39.833,174.057 44.651,174.671 45.649 C 175.096 46.340,175.794 46.984,176.238 47.095 C 176.474 47.154,176.667 47.270,176.667 47.351 C 176.667 47.546,184.285 47.546,184.405 47.352 C 184.456 47.270,184.698 47.153,184.944 47.091 C 185.569 46.935,186.314 46.035,186.439 45.288 C 186.497 44.942,186.609 44.619,186.689 44.570 C 186.878 44.453,186.878 41.167,186.688 41.167 C 186.608 41.167,186.495 40.867,186.436 40.500 C 186.377 40.133,186.268 39.833,186.193 39.833 C 186.118 39.833,185.956 39.646,185.833 39.417 C 185.711 39.188,185.511 39.000,185.389 39.000 C 185.266 39.000,185.167 38.926,185.167 38.835 C 185.167 38.745,184.867 38.623,184.500 38.564 C 184.133 38.505,183.833 38.392,183.833 38.312 C 183.833 38.232,182.333 38.167,180.500 38.167 C 178.603 38.167,177.167 38.232,177.167 38.319 M126.000 39.117 C 125.678 39.236,124.500 40.438,124.500 40.646 C 124.500 40.734,124.406 40.837,124.292 40.875 C 123.950 40.989,123.991 85.108,124.333 85.755 C 124.697 86.441,125.579 87.333,125.895 87.333 C 126.044 87.333,126.167 87.408,126.167 87.500 C 126.167 87.607,127.806 87.667,130.750 87.667 C 133.694 87.667,135.333 87.607,135.333 87.500 C 135.333 87.408,135.443 87.333,135.578 87.333 C 135.933 87.333,136.803 86.427,136.929 85.927 C 136.988 85.690,137.104 85.456,137.185 85.405 C 137.268 85.354,137.333 82.015,137.333 77.823 L 137.333 70.333 149.667 70.333 C 157.068 70.333,162.000 70.272,162.000 70.180 C 162.000 70.096,162.244 69.973,162.542 69.908 C 163.141 69.777,163.706 69.227,164.292 68.202 C 164.550 67.750,164.587 62.740,164.333 62.583 C 164.242 62.527,164.167 62.362,164.167 62.218 C 164.167 61.843,162.773 60.500,162.383 60.500 C 162.203 60.500,161.999 60.444,161.931 60.375 C 161.753 60.198,162.594 60.210,149.417 60.188 L 137.333 60.167 137.333 54.500 L 137.333 48.833 152.583 48.833 C 162.639 48.833,167.833 48.777,167.833 48.667 C 167.833 48.575,167.958 48.500,168.110 48.500 C 169.251 48.500,169.996 46.690,169.996 43.917 C 169.996 41.277,169.922 40.986,168.982 39.964 L 168.173 39.083 147.211 39.054 C 135.683 39.038,126.138 39.066,126.000 39.117 M236.958 39.176 C 236.798 39.272,236.667 39.451,236.667 39.574 C 236.667 39.697,236.554 39.841,236.417 39.894 C 236.110 40.011,236.030 85.952,236.335 86.755 C 236.428 86.999,236.653 87.238,236.835 87.286 C 237.018 87.333,237.167 87.438,237.167 87.519 C 237.167 87.601,239.349 87.667,242.083 87.667 C 245.250 87.667,247.000 87.607,247.000 87.500 C 247.000 87.408,247.112 87.333,247.250 87.333 C 247.387 87.333,247.500 87.254,247.500 87.157 C 247.500 87.060,247.568 87.023,247.652 87.074 C 247.735 87.126,247.854 86.868,247.916 86.502 C 247.978 86.135,248.097 85.793,248.181 85.741 C 248.271 85.686,248.333 80.977,248.333 74.332 L 248.333 63.016 249.338 62.008 C 249.891 61.454,250.413 61.000,250.498 61.000 C 250.582 61.000,250.839 60.813,251.068 60.583 C 251.297 60.354,251.566 60.167,251.664 60.167 C 251.763 60.167,251.884 60.062,251.933 59.933 C 251.983 59.805,252.280 59.651,252.595 59.592 C 252.909 59.533,253.167 59.413,253.167 59.326 C 253.167 59.238,253.279 59.167,253.417 59.167 C 253.554 59.167,253.667 59.095,253.667 59.008 C 253.667 58.920,253.948 58.803,254.292 58.748 C 254.635 58.693,255.053 58.574,255.220 58.482 C 255.631 58.257,258.841 58.243,258.979 58.466 C 259.038 58.562,259.292 58.692,259.543 58.755 C 259.795 58.818,260.000 58.936,260.000 59.018 C 260.000 59.100,260.108 59.167,260.240 59.167 C 260.594 59.167,261.974 60.587,262.097 61.078 C 262.155 61.310,262.266 61.500,262.344 61.500 C 262.421 61.500,262.530 61.781,262.585 62.125 C 262.640 62.469,262.775 62.900,262.884 63.083 C 263.031 63.329,263.108 66.438,263.176 74.917 C 263.227 81.242,263.283 86.430,263.301 86.446 C 263.319 86.463,263.586 86.744,263.895 87.071 L 264.456 87.667 269.323 87.667 C 272.982 87.667,274.248 87.615,274.423 87.458 C 274.551 87.344,274.770 87.153,274.911 87.035 C 275.052 86.917,275.167 86.636,275.167 86.410 C 275.167 86.185,275.242 86.000,275.333 86.000 C 275.541 86.000,275.566 64.894,275.359 64.766 C 275.282 64.718,275.172 63.764,275.116 62.645 C 275.060 61.527,274.945 60.568,274.860 60.514 C 274.776 60.460,274.653 60.023,274.588 59.542 C 274.522 59.060,274.401 58.667,274.318 58.667 C 274.235 58.667,274.167 58.479,274.167 58.250 C 274.167 58.021,274.098 57.833,274.013 57.833 C 273.929 57.833,273.810 57.608,273.750 57.333 C 273.690 57.058,273.577 56.833,273.500 56.833 C 273.423 56.833,273.310 56.605,273.248 56.325 C 273.187 56.046,272.993 55.728,272.818 55.619 C 272.643 55.509,272.500 55.342,272.500 55.246 C 272.500 54.883,270.954 53.163,270.181 52.667 C 269.967 52.529,269.686 52.314,269.555 52.189 C 269.241 51.887,267.498 51.000,267.219 51.000 C 267.099 51.000,267.000 50.925,267.000 50.833 C 267.000 50.742,266.859 50.667,266.687 50.667 C 266.515 50.667,266.105 50.554,265.776 50.417 C 265.447 50.279,264.994 50.167,264.769 50.167 C 264.545 50.167,264.330 50.073,264.292 49.958 C 264.196 49.671,256.046 49.655,255.869 49.942 C 255.804 50.048,255.394 50.187,254.958 50.253 C 254.523 50.318,254.167 50.438,254.167 50.519 C 254.167 50.600,253.979 50.667,253.750 50.667 C 253.521 50.667,253.333 50.736,253.333 50.820 C 253.333 50.904,253.108 51.023,252.833 51.083 C 252.558 51.144,252.333 51.256,252.333 51.333 C 252.333 51.410,252.108 51.523,251.833 51.583 C 251.558 51.644,251.333 51.762,251.333 51.847 C 251.333 51.931,251.221 52.000,251.083 52.000 C 250.946 52.000,250.833 52.070,250.833 52.155 C 250.833 52.241,250.668 52.363,250.466 52.427 C 250.264 52.492,250.004 52.628,249.889 52.730 C 249.351 53.207,249.169 53.333,249.025 53.333 C 248.939 53.333,248.826 53.446,248.773 53.583 C 248.410 54.529,248.333 53.436,248.333 47.333 C 248.333 43.758,248.268 40.833,248.188 40.833 C 248.109 40.833,248.001 40.570,247.949 40.248 C 247.757 39.069,247.849 39.088,242.262 39.043 C 239.011 39.017,237.148 39.064,236.958 39.176 M77.125 45.992 C 75.665 47.466,75.118 48.333,75.648 48.333 C 75.730 48.333,75.845 48.596,75.906 48.917 C 75.966 49.237,76.078 49.500,76.155 49.500 C 76.232 49.500,76.346 49.836,76.407 50.246 C 76.469 50.656,76.590 51.036,76.676 51.089 C 76.763 51.143,76.833 51.401,76.833 51.663 C 76.833 51.925,76.908 52.164,76.999 52.194 C 77.090 52.225,77.214 52.946,77.274 53.798 C 77.335 54.649,77.448 55.384,77.525 55.432 C 77.603 55.480,77.667 56.113,77.667 56.837 L 77.667 58.155 78.500 58.266 C 78.958 58.327,79.333 58.437,79.333 58.511 C 79.333 58.586,79.671 58.697,80.083 58.759 C 80.496 58.821,80.833 58.938,80.833 59.019 C 80.833 59.100,80.940 59.167,81.069 59.167 C 81.199 59.167,81.331 59.240,81.361 59.330 C 81.392 59.419,81.649 59.539,81.934 59.596 C 82.833 59.775,82.934 57.128,82.228 51.875 C 82.176 51.485,82.073 51.167,82.000 51.167 C 81.926 51.167,81.814 50.717,81.750 50.167 C 81.686 49.617,81.566 49.167,81.484 49.167 C 81.401 49.167,81.333 48.998,81.332 48.792 C 81.332 48.585,81.219 48.202,81.082 47.939 C 80.945 47.677,80.833 47.358,80.833 47.231 C 80.833 47.104,80.762 47.000,80.674 47.000 C 80.587 47.000,80.466 46.737,80.406 46.417 C 80.345 46.096,80.236 45.833,80.161 45.833 C 80.087 45.833,79.977 45.608,79.917 45.333 C 79.856 45.058,79.738 44.833,79.653 44.833 C 79.569 44.833,79.500 44.721,79.500 44.583 C 79.500 43.929,78.694 44.407,77.125 45.992 M205.292 49.779 C 204.673 49.817,204.167 49.911,204.167 49.988 C 204.167 50.065,203.605 50.180,202.918 50.245 C 202.231 50.309,201.626 50.430,201.575 50.514 C 201.523 50.598,201.297 50.667,201.073 50.667 C 200.850 50.667,200.667 50.732,200.667 50.812 C 200.667 50.892,200.367 51.005,200.000 51.064 C 199.633 51.123,199.333 51.239,199.333 51.322 C 199.333 51.405,199.090 51.525,198.792 51.588 C 198.494 51.651,198.100 51.836,197.917 51.999 C 197.733 52.162,197.396 52.352,197.167 52.421 C 196.938 52.490,196.585 52.723,196.383 52.940 C 196.181 53.156,195.971 53.333,195.916 53.333 C 195.860 53.333,195.576 53.558,195.283 53.833 C 194.990 54.107,194.699 54.332,194.636 54.333 C 194.574 54.333,194.471 54.496,194.408 54.696 C 194.344 54.895,194.149 55.212,193.973 55.401 C 193.797 55.589,193.611 55.914,193.559 56.122 C 193.507 56.330,193.404 56.500,193.331 56.500 C 193.258 56.500,193.146 56.875,193.083 57.333 C 193.020 57.792,192.911 58.167,192.841 58.167 C 192.708 58.167,192.453 59.942,192.482 60.667 C 192.529 61.827,192.714 63.269,192.834 63.417 C 192.909 63.508,193.023 63.865,193.087 64.208 C 193.151 64.552,193.262 64.833,193.332 64.833 C 193.461 64.833,193.719 65.473,193.685 65.708 C 193.675 65.777,193.742 65.833,193.833 65.833 C 193.925 65.833,194.000 65.918,194.000 66.023 C 194.000 66.127,194.173 66.372,194.384 66.568 C 194.596 66.764,194.819 67.055,194.880 67.216 C 194.942 67.376,195.115 67.555,195.264 67.612 C 195.414 67.669,195.816 67.986,196.158 68.316 C 196.973 69.104,197.517 69.500,197.784 69.500 C 197.903 69.500,198.000 69.575,198.000 69.667 C 198.000 69.758,198.094 69.835,198.208 69.837 C 198.323 69.839,198.867 70.062,199.417 70.333 C 199.967 70.604,200.548 70.828,200.708 70.830 C 200.869 70.832,201.000 70.904,201.000 70.990 C 201.000 71.076,201.338 71.197,201.750 71.259 C 202.162 71.321,202.500 71.438,202.500 71.519 C 202.500 71.600,202.688 71.667,202.917 71.667 C 203.146 71.667,203.333 71.736,203.333 71.821 C 203.333 71.906,203.746 72.028,204.250 72.091 C 204.754 72.154,205.167 72.265,205.167 72.338 C 205.167 72.412,205.729 72.524,206.417 72.589 C 207.104 72.653,207.667 72.772,207.667 72.853 C 207.667 72.934,207.892 73.000,208.167 73.000 C 208.442 73.000,208.667 73.069,208.667 73.153 C 208.667 73.238,209.154 73.359,209.750 73.423 C 210.346 73.487,210.833 73.599,210.833 73.673 C 210.833 73.747,211.321 73.859,211.917 73.923 C 212.512 73.987,213.000 74.105,213.000 74.186 C 213.000 74.267,213.225 74.333,213.500 74.333 C 213.775 74.333,214.000 74.399,214.000 74.479 C 214.000 74.559,214.300 74.672,214.667 74.731 C 215.033 74.789,215.333 74.902,215.333 74.981 C 215.333 75.060,215.615 75.169,215.960 75.224 C 216.309 75.280,216.694 75.474,216.830 75.662 C 216.964 75.848,217.170 76.000,217.287 76.000 C 217.404 76.000,217.500 76.115,217.500 76.255 C 217.500 76.396,217.612 76.554,217.750 76.606 C 218.033 76.715,218.110 78.000,217.833 78.000 C 217.742 78.000,217.667 78.152,217.667 78.339 C 217.667 78.525,217.535 78.727,217.375 78.788 C 217.215 78.848,216.984 78.996,216.863 79.116 C 216.742 79.235,216.503 79.333,216.331 79.333 C 216.160 79.333,215.973 79.408,215.917 79.500 C 215.860 79.592,215.637 79.667,215.421 79.667 C 215.205 79.667,214.997 79.760,214.958 79.875 C 214.905 80.034,213.963 80.083,211.000 80.083 C 208.037 80.083,207.095 80.034,207.042 79.875 C 207.003 79.760,206.791 79.667,206.569 79.667 C 206.348 79.667,206.167 79.598,206.167 79.513 C 206.167 79.429,205.942 79.310,205.667 79.250 C 205.392 79.190,205.167 79.073,205.167 78.990 C 205.167 78.907,204.982 78.793,204.756 78.737 C 204.530 78.680,204.300 78.491,204.245 78.317 C 204.189 78.143,204.074 78.000,203.989 78.000 C 203.903 78.000,203.833 77.887,203.833 77.750 C 203.833 77.612,203.732 77.500,203.608 77.500 C 203.484 77.500,203.147 77.275,202.860 77.000 C 202.482 76.639,202.174 76.500,201.752 76.500 C 201.430 76.500,201.167 76.425,201.167 76.333 C 201.167 76.227,199.861 76.167,197.583 76.167 C 195.596 76.167,194.000 76.233,194.000 76.315 C 194.000 76.397,193.814 76.511,193.586 76.568 C 193.330 76.632,193.132 76.830,193.068 77.086 C 193.011 77.314,192.897 77.500,192.815 77.500 C 192.734 77.500,192.667 78.212,192.667 79.083 C 192.667 79.954,192.732 80.667,192.812 80.667 C 192.892 80.667,193.007 81.042,193.068 81.500 C 193.128 81.958,193.242 82.333,193.320 82.333 C 193.397 82.333,193.505 82.465,193.559 82.625 C 193.891 83.614,196.074 85.680,197.042 85.922 C 197.294 85.985,197.500 86.097,197.500 86.171 C 197.500 86.246,197.725 86.356,198.000 86.417 C 198.275 86.477,198.500 86.596,198.500 86.680 C 198.500 86.764,198.688 86.833,198.917 86.833 C 199.146 86.833,199.333 86.901,199.333 86.984 C 199.333 87.067,199.727 87.189,200.208 87.255 C 200.690 87.320,201.124 87.438,201.174 87.517 C 201.224 87.595,201.918 87.710,202.716 87.771 C 203.514 87.832,204.167 87.941,204.167 88.011 C 204.167 88.335,214.913 88.654,215.228 88.339 C 215.322 88.244,215.910 88.167,216.533 88.167 C 217.157 88.167,217.667 88.101,217.667 88.021 C 217.667 87.942,218.342 87.824,219.167 87.759 C 219.992 87.694,220.667 87.577,220.667 87.498 C 220.667 87.419,221.004 87.303,221.417 87.241 C 221.829 87.179,222.167 87.062,222.167 86.981 C 222.167 86.900,222.354 86.833,222.583 86.833 C 222.813 86.833,223.000 86.768,223.000 86.688 C 223.000 86.608,223.300 86.495,223.667 86.436 C 224.033 86.377,224.333 86.255,224.333 86.165 C 224.333 86.074,224.416 86.000,224.516 86.000 C 224.850 86.000,225.911 85.430,226.250 85.069 C 226.433 84.873,226.748 84.661,226.950 84.598 C 227.151 84.535,227.361 84.341,227.417 84.167 C 227.472 83.993,227.646 83.810,227.803 83.760 C 227.960 83.710,228.275 83.317,228.503 82.887 C 228.730 82.457,229.046 81.971,229.204 81.807 C 229.362 81.643,229.542 81.300,229.605 81.046 C 229.667 80.791,229.800 80.530,229.901 80.464 C 230.155 80.299,230.153 74.533,229.899 74.369 C 229.798 74.304,229.663 73.969,229.600 73.625 C 229.537 73.281,229.413 73.000,229.326 73.000 C 229.238 73.000,229.167 72.887,229.167 72.750 C 229.167 72.612,229.092 72.500,229.000 72.500 C 228.908 72.500,228.833 72.403,228.833 72.284 C 228.833 71.863,226.865 69.673,226.292 69.455 C 226.131 69.394,226.000 69.275,226.000 69.190 C 226.000 69.105,225.813 68.989,225.583 68.932 C 225.354 68.874,225.167 68.753,225.167 68.663 C 225.167 68.574,225.054 68.500,224.917 68.500 C 224.779 68.500,224.667 68.439,224.667 68.365 C 224.667 68.228,223.755 67.797,223.000 67.577 C 222.771 67.510,222.546 67.409,222.500 67.353 C 222.303 67.111,221.633 66.832,221.007 66.732 C 220.637 66.673,220.333 66.564,220.333 66.491 C 220.333 66.417,219.921 66.306,219.417 66.243 C 218.912 66.180,218.500 66.062,218.500 65.981 C 218.500 65.900,218.317 65.833,218.093 65.833 C 217.869 65.833,217.645 65.767,217.595 65.686 C 217.546 65.605,217.016 65.487,216.419 65.423 C 215.822 65.359,215.333 65.244,215.333 65.168 C 215.333 65.091,214.771 64.976,214.083 64.911 C 213.396 64.847,212.833 64.728,212.833 64.647 C 212.833 64.566,212.608 64.500,212.333 64.500 C 212.058 64.500,211.833 64.431,211.833 64.347 C 211.833 64.262,211.346 64.141,210.750 64.077 C 210.154 64.013,209.667 63.900,209.667 63.826 C 209.667 63.752,209.254 63.639,208.750 63.576 C 208.246 63.513,207.833 63.395,207.833 63.314 C 207.833 63.233,207.689 63.167,207.514 63.167 C 206.813 63.167,205.570 62.259,204.956 61.298 C 204.639 60.802,204.570 60.167,204.833 60.167 C 204.925 60.167,205.000 60.073,205.001 59.958 C 205.002 59.661,205.970 58.667,206.258 58.667 C 206.391 58.667,206.500 58.595,206.500 58.508 C 206.500 58.421,206.952 58.299,207.504 58.236 C 208.056 58.174,208.548 58.058,208.597 57.978 C 208.715 57.787,213.500 57.790,213.500 57.981 C 213.500 58.062,213.912 58.180,214.417 58.243 C 214.921 58.306,215.333 58.427,215.333 58.512 C 215.333 58.597,215.523 58.667,215.755 58.667 C 215.987 58.667,216.220 58.779,216.273 58.917 C 216.326 59.054,216.477 59.167,216.608 59.167 C 216.740 59.167,217.236 59.579,217.711 60.083 C 218.185 60.587,218.670 61.000,218.787 61.000 C 218.904 61.000,219.000 61.074,219.000 61.165 C 219.000 61.255,219.300 61.377,219.667 61.436 C 220.033 61.495,220.333 61.608,220.333 61.688 C 220.333 61.768,222.021 61.833,224.083 61.833 C 226.168 61.833,227.833 61.767,227.833 61.685 C 227.833 61.603,228.020 61.489,228.247 61.432 C 228.503 61.368,228.701 61.170,228.766 60.914 C 228.823 60.686,228.936 60.500,229.018 60.500 C 229.100 60.500,229.167 59.900,229.167 59.167 C 229.167 58.433,229.100 57.833,229.019 57.833 C 228.938 57.833,228.820 57.421,228.757 56.917 C 228.694 56.413,228.579 56.000,228.501 56.000 C 228.423 56.000,228.314 55.790,228.257 55.532 C 228.201 55.275,228.007 54.959,227.827 54.829 C 227.647 54.699,227.500 54.503,227.500 54.393 C 227.500 54.117,226.206 52.833,225.928 52.833 C 225.804 52.833,225.659 52.721,225.606 52.583 C 225.554 52.446,225.358 52.333,225.172 52.333 C 224.986 52.333,224.833 52.258,224.833 52.167 C 224.833 52.075,224.721 52.000,224.583 52.000 C 224.446 52.000,224.333 51.931,224.333 51.847 C 224.333 51.762,224.108 51.644,223.833 51.583 C 223.558 51.523,223.333 51.412,223.333 51.336 C 223.333 51.260,222.958 51.146,222.500 51.083 C 222.042 51.020,221.667 50.901,221.667 50.818 C 221.667 50.735,221.457 50.667,221.200 50.667 C 220.943 50.667,220.662 50.596,220.575 50.510 C 220.488 50.424,219.817 50.300,219.083 50.236 C 218.350 50.171,217.700 50.042,217.640 49.948 C 217.528 49.776,207.557 49.640,205.292 49.779 M175.667 51.314 C 175.667 51.395,175.511 51.502,175.321 51.552 C 175.131 51.601,174.935 51.797,174.885 51.988 C 174.835 52.178,174.728 52.333,174.647 52.333 C 174.563 52.333,174.500 59.643,174.500 69.417 C 174.500 80.694,174.557 86.500,174.667 86.500 C 174.758 86.500,174.833 86.654,174.833 86.843 C 174.833 87.032,174.908 87.140,175.000 87.083 C 175.092 87.027,175.167 87.060,175.167 87.157 C 175.167 87.254,175.279 87.333,175.417 87.333 C 175.554 87.333,175.667 87.408,175.667 87.500 C 175.667 87.607,177.417 87.667,180.583 87.667 C 183.317 87.667,185.500 87.601,185.500 87.519 C 185.500 87.438,185.649 87.333,185.831 87.286 C 186.014 87.238,186.239 86.999,186.331 86.755 C 186.635 85.956,186.557 52.414,186.250 52.107 C 186.112 51.970,186.000 51.777,186.000 51.679 C 186.000 51.580,185.887 51.500,185.750 51.500 C 185.612 51.500,185.500 51.425,185.500 51.333 C 185.500 51.226,183.750 51.167,180.583 51.167 C 177.849 51.167,175.667 51.232,175.667 51.314 "
              stroke="none" fill="#3c4454" fill-rule="evenodd"></path>
        <path id="path2" d="" stroke="none" fill="#3480ac" fill-rule="evenodd"></path>
        <path id="path3" d="" stroke="none" fill="#346470" fill-rule="evenodd"></path>
        <path id="path4" d="" stroke="none" fill="#344474" fill-rule="evenodd"></path>
    </g>
</svg>